<?xml version="1.0" standalone="no"?>
<!DOCTYPE svg PUBLIC "-//W3C//DTD SVG 20010904//EN"
 "http://www.w3.org/TR/2001/REC-SVG-20010904/DTD/svg10.dtd">
<svg version="1.0" xmlns="http://www.w3.org/2000/svg"
 width="1500.000000pt" height="798.000000pt" viewBox="0 0 1500.000000 798.000000"
 preserveAspectRatio="xMidYMid meet">

<g transform="translate(0.000000,798.000000) scale(0.100000,-0.100000)"
fill="#000000" stroke="none">
<path d="M0 7410 l0 -569 30 -16 c17 -9 35 -13 40 -10 6 3 10 1 10 -5 0 -6 10
-8 23 -5 12 3 31 6 42 8 11 1 26 6 33 10 6 5 12 5 12 0 1 -10 52 78 75 127 13
28 14 42 6 71 -6 20 -11 48 -11 62 0 15 -12 37 -30 54 -30 28 -39 57 -20 68 6
4 8 10 5 15 -6 10 25 80 37 80 4 0 4 7 1 17 -4 11 -3 14 5 9 8 -5 10 -1 5 10
-5 13 -3 16 10 11 21 -8 22 2 3 29 -13 19 -12 22 16 45 37 29 42 35 72 76 l23
33 13 -25 13 -24 27 20 c17 13 36 19 56 15 16 -2 32 -5 37 -5 4 -1 7 -8 7 -17
0 -31 25 -6 62 62 43 79 46 80 17 5 -11 -30 -18 -60 -15 -68 3 -8 1 -11 -4 -8
-6 3 -10 -3 -10 -14 0 -27 7 -26 31 2 l19 22 -6 -27 c-5 -24 -4 -27 18 -23 19
4 28 -1 35 -18 9 -20 18 -23 63 -22 28 0 54 -3 57 -9 3 -5 14 2 23 15 l18 23
-1 -26 c-1 -14 -6 -24 -10 -21 -5 3 -3 -4 5 -16 16 -27 35 -27 43 0 5 15 10
18 18 10 7 -7 6 -15 -4 -28 -12 -16 -12 -17 1 -7 22 16 66 8 89 -15 26 -26 40
-27 48 -3 4 9 23 36 42 59 28 34 37 40 43 28 6 -9 2 -27 -7 -46 -9 -17 -12
-28 -6 -25 6 4 20 2 31 -4 29 -15 93 20 110 59 7 17 18 31 24 31 7 0 6 3 -2 8
-16 11 -4 45 13 38 7 -2 20 12 30 35 10 22 20 37 23 35 2 -3 -8 -30 -22 -62
-28 -62 -32 -89 -14 -100 7 -4 8 -3 4 4 -4 7 -1 12 7 12 7 0 19 10 26 23 6 12
30 31 51 41 22 11 40 23 40 28 0 5 4 6 10 3 12 -7 65 74 81 124 19 60 29 58
13 -4 -8 -31 -13 -60 -10 -63 3 -2 16 18 29 46 24 51 44 63 26 15 -5 -14 -13
-43 -18 -65 l-9 -40 29 28 c26 25 44 23 18 -3 -8 -8 -6 -11 7 -10 11 1 22 7
26 12 5 6 8 3 8 -7 0 -11 6 -16 20 -13 12 2 21 -3 25 -16 4 -10 11 -19 16 -19
5 0 9 -8 10 -17 0 -16 2 -16 14 2 8 11 21 29 30 40 l16 20 -9 -20 c-5 -11 -7
-26 -4 -34 3 -9 0 -11 -8 -6 -9 5 -11 4 -6 -3 4 -6 0 -26 -9 -44 l-16 -33 20
25 c22 27 27 17 11 -24 -10 -28 10 -92 25 -79 4 5 5 -3 1 -17 -5 -14 -10 -38
-12 -55 -4 -28 -4 -29 6 -6 6 13 13 21 16 18 3 -3 -6 -33 -19 -66 -23 -58 -24
-61 -6 -56 17 6 18 3 9 -20 -6 -15 -21 -46 -35 -69 -14 -24 -27 -62 -29 -85
-5 -47 11 -104 25 -95 5 3 9 1 9 -5 0 -5 -6 -12 -12 -14 -8 -3 -6 -6 5 -6 24
-1 21 -19 -4 -23 -12 -2 -26 -13 -30 -25 -11 -29 4 -30 32 -2 11 11 23 18 26
16 7 -8 -27 -70 -49 -88 -14 -11 -19 -24 -16 -45 3 -26 7 -22 45 51 50 95 58
84 10 -13 -19 -37 -44 -98 -57 -137 -34 -104 -62 -178 -73 -193 -5 -7 -7 -15
-4 -18 3 -4 18 20 32 51 14 32 28 56 31 53 3 -4 -6 -29 -20 -57 -14 -28 -26
-65 -26 -82 0 -32 0 -32 21 -13 l21 19 -7 -42 c-4 -29 -3 -43 4 -43 6 0 10 -3
9 -7 -5 -13 28 -53 36 -45 5 4 6 -2 5 -13 -5 -29 23 -66 41 -54 8 5 20 9 25 9
6 -1 2 -5 -7 -11 -19 -11 -25 -49 -8 -49 7 0 7 -6 0 -20 -8 -16 -8 -20 4 -20
10 0 13 -10 11 -35 -2 -20 0 -33 6 -29 5 3 6 10 3 16 -4 7 -2 8 4 4 9 -5 8
-15 -3 -36 -8 -16 -14 -39 -13 -52 2 -28 -33 -109 -69 -156 -14 -18 -30 -50
-35 -70 -6 -20 -13 -31 -15 -25 -5 14 -68 -71 -83 -112 -5 -14 -15 -25 -22
-25 -9 0 -9 3 0 12 7 7 12 23 12 37 l-1 26 -24 -29 c-22 -28 -33 -33 -77 -38
-11 -1 -29 -28 -49 -73 -45 -100 -46 -103 -16 -70 18 20 25 24 20 11 -4 -13
-3 -17 5 -12 7 4 12 13 12 21 0 8 5 17 10 20 6 4 1 -18 -11 -47 -31 -79 -59
-153 -59 -156 0 -2 4 0 10 3 5 3 10 0 10 -7 1 -19 38 32 45 62 8 32 72 170 79
170 6 0 -14 -58 -44 -125 -48 -111 -50 -114 -41 -137 8 -21 9 -20 20 17 6 22
11 46 11 53 0 6 4 12 9 12 6 0 8 -17 5 -37 l-4 -38 20 44 c29 63 33 46 6 -29
-13 -36 -21 -70 -19 -77 2 -6 -10 -37 -26 -69 -17 -31 -31 -62 -31 -68 0 -28
-22 -88 -29 -78 -4 7 -21 -17 -41 -59 -63 -128 -58 -92 8 71 32 80 49 132 35
114 -4 -6 -18 -14 -30 -18 -14 -5 -20 -12 -16 -22 3 -9 0 -14 -7 -12 -13 3
-68 -92 -102 -177 -40 -101 -36 -65 6 58 24 69 41 128 38 131 -3 4 -19 -9 -35
-26 -16 -18 -25 -26 -19 -18 5 8 17 31 25 51 12 31 13 36 0 36 -7 0 -12 -6 -9
-14 3 -7 1 -13 -4 -13 -6 0 -10 7 -10 15 0 8 -10 19 -21 26 -15 8 -18 13 -10
19 10 5 9 9 -3 13 -10 4 -13 13 -9 24 6 16 4 16 -18 -2 -42 -35 -47 -48 -76
-170 -15 -66 -29 -112 -31 -103 -5 27 48 292 61 303 7 6 19 24 27 40 8 17 28
44 44 60 l29 30 -22 -37 c-18 -30 -20 -38 -8 -38 9 0 18 -6 20 -12 4 -10 6
-10 6 0 1 6 14 12 30 12 26 0 31 7 59 73 40 93 42 103 18 99 -17 -3 -18 -2 -6
13 10 12 15 13 21 4 9 -16 31 24 34 65 1 17 6 40 10 51 l8 20 -16 -20 c-9 -11
-17 -27 -17 -35 -1 -10 -3 -11 -6 -3 -3 7 0 22 7 35 12 23 11 23 -16 -2 l-28
-25 19 30 c10 16 14 26 8 23 -9 -6 -125 29 -153 46 -11 7 -55 -78 -107 -206
-10 -27 -23 -48 -28 -48 -4 0 -5 8 -2 17 6 14 46 209 46 222 0 2 -8 -4 -19
-13 -10 -9 -33 -49 -50 -89 -18 -40 -43 -94 -56 -122 -13 -27 -31 -67 -39 -89
-15 -36 -15 -37 1 -25 15 13 15 12 5 -8 -14 -26 -15 -36 -3 -29 5 4 1 -12 -10
-33 -22 -47 -44 -66 -29 -25 15 39 4 42 -17 5 -37 -66 -44 -70 -37 -21 4 25
13 56 20 70 7 14 16 33 20 43 3 9 12 17 19 17 7 0 27 35 44 78 18 42 39 87 48
100 13 20 63 145 63 157 0 2 -10 2 -22 0 -12 -3 -32 2 -45 10 -12 8 -24 15
-27 15 -2 0 -12 -20 -21 -44 -10 -25 -23 -47 -31 -50 -18 -7 -18 -2 1 34 l15
30 -25 -10 c-39 -15 -41 -13 -15 15 18 20 22 30 14 42 -14 22 -29 13 -25 -16
2 -15 -1 -21 -8 -16 -6 3 -8 11 -5 17 4 7 2 8 -5 4 -6 -4 -9 -12 -5 -17 3 -5
-8 -8 -25 -7 -18 1 -39 -6 -53 -17 -15 -13 -18 -14 -10 -3 7 9 9 18 5 21 -17
10 -44 -22 -58 -69 -19 -62 -19 -75 0 -68 20 8 20 -18 -1 -57 -8 -17 -14 -33
-11 -35 2 -2 18 28 36 67 43 94 52 81 11 -17 l-31 -76 20 -19 c19 -18 21 -18
30 -1 10 16 11 15 12 -3 1 -11 2 -24 4 -30 1 -5 3 -17 4 -25 1 -10 10 -6 27
15 23 26 24 27 13 5 -11 -23 -11 -24 4 -11 15 12 17 11 17 -6 0 -23 -29 -114
-41 -127 -4 -5 -5 0 -3 11 3 12 0 24 -7 28 -7 5 -10 4 -7 -1 3 -5 0 -15 -8
-22 -10 -9 -14 -10 -14 -1 0 7 -11 0 -25 -15 -21 -23 -28 -26 -41 -15 -12 10
-15 10 -12 -1 2 -8 -3 -14 -10 -15 -7 0 -16 -5 -20 -11 -4 -6 -17 -16 -29 -23
-19 -10 -22 -9 -17 4 5 11 -1 15 -25 15 -17 0 -30 3 -30 8 3 19 -2 25 -11 12
-9 -13 -10 -13 -10 0 0 14 -48 67 -53 59 -2 -2 -9 -17 -15 -33 -17 -39 -24
-28 -11 18 8 27 7 42 0 49 -7 7 -11 7 -11 1 0 -6 -7 -19 -16 -30 -11 -14 -14
-15 -11 -3 4 14 -1 15 -35 12 -32 -4 -39 -2 -32 8 6 12 5 12 -8 1 -13 -10 -18
-10 -29 0 -16 15 -38 16 -56 5 -14 -9 -15 -2 -4 28 5 12 3 25 -6 33 -11 11
-16 11 -30 -4 -42 -41 -9 54 39 116 l20 25 -7 -28 c-15 -60 46 -16 81 58 14
30 23 42 23 30 1 -11 -8 -33 -19 -50 -35 -53 -16 -68 34 -26 18 15 19 15 12
-4 -4 -13 -4 -16 2 -10 5 6 19 43 31 83 27 91 45 96 20 5 -23 -82 -24 -94 -3
-65 8 12 22 22 30 22 8 0 13 4 10 9 -4 5 8 12 24 16 17 4 36 15 43 26 16 25
26 24 20 -2 -4 -14 -1 -20 8 -19 27 4 40 0 34 -10 -3 -5 -2 -10 3 -10 5 0 16
21 25 48 l17 47 -5 -40 c-2 -22 -8 -55 -11 -74 -5 -25 -4 -33 6 -29 7 2 14 17
15 34 1 16 12 74 23 128 12 55 19 102 17 105 -3 2 -5 0 -5 -6 0 -6 -7 -13 -15
-16 -11 -5 -12 -1 -5 18 6 16 5 36 -2 57 l-11 32 -14 -40 c-8 -21 -12 -47 -9
-56 2 -10 1 -20 -4 -23 -17 -10 -19 28 -4 85 14 54 14 62 0 76 -9 8 -16 20
-16 25 0 5 -6 9 -14 9 -9 0 -19 -20 -27 -55 -7 -30 -15 -55 -19 -55 -4 0 -2
27 5 61 13 59 12 61 -7 55 -16 -4 -18 -2 -9 7 14 14 14 40 -1 55 -9 9 -16 8
-31 -6 -19 -16 -19 -16 -12 8 4 14 10 30 12 36 2 7 0 15 -6 18 -5 3 -12 -7
-16 -24 -4 -16 -10 -32 -15 -35 -5 -3 -5 9 1 27 19 69 10 68 -65 -5 -41 -39
-73 -74 -70 -78 2 -4 -7 -19 -22 -34 -16 -16 -33 -53 -45 -95 -11 -38 -40
-108 -64 -156 -70 -137 -57 -90 25 91 10 22 22 58 26 80 6 36 6 39 -9 26 -10
-7 -17 -10 -17 -6 0 4 -16 -9 -35 -29 -31 -34 -35 -35 -35 -15 0 18 -3 19 -14
9 -12 -9 -18 -7 -32 9 -16 19 -18 19 -30 3 -14 -18 -18 -10 -15 33 1 12 -7 3
-19 -20 l-20 -40 6 45 c4 25 3 42 -1 38 -5 -4 -19 4 -32 18 -13 15 -26 24 -29
22 -2 -3 -3 -153 -2 -334 l3 -329 44 105 c52 123 58 132 59 88 0 -22 -17 -65
-54 -132 l-54 -99 0 -436 0 -436 35 55 c19 30 45 79 57 107 13 29 26 53 31 53
13 0 7 -24 -12 -54 -22 -33 -18 -54 7 -34 14 12 14 10 3 -9 -10 -19 -9 -23 3
-23 8 0 22 23 34 58 l21 57 -6 -49 c-4 -33 -3 -47 4 -43 6 4 36 9 68 11 31 3
63 10 71 17 11 9 14 9 14 -1 0 -19 13 -3 28 33 l12 32 -5 -30 c-3 -16 -8 -38
-11 -47 -9 -30 29 -21 47 11 9 15 25 30 36 33 17 4 19 1 15 -21 -3 -14 -9 -31
-14 -37 -12 -16 0 -43 18 -40 8 1 21 11 29 22 17 22 19 15 6 -19 -8 -21 -6
-26 10 -30 11 -3 27 2 36 11 16 16 16 16 9 -3 -16 -39 -18 -55 -8 -55 6 0 14
5 18 11 5 8 9 7 14 -1 5 -8 15 8 26 43 10 31 20 55 22 52 3 -2 -8 -44 -23 -92
-18 -57 -23 -89 -16 -91 6 -2 11 -8 11 -13 0 -6 -4 -7 -10 -4 -6 3 -7 -1 -4
-10 5 -13 9 -13 22 -3 13 11 14 10 7 -12 -4 -14 -10 -31 -13 -39 -3 -9 -1 -12
5 -8 7 5 10 -5 8 -28 -4 -42 0 -44 19 -7 9 16 16 21 16 12 1 -8 10 8 20 35 27
73 24 43 -5 -50 -26 -84 -25 -142 1 -108 13 17 13 17 14 -2 0 -18 4 -16 30 11
16 18 36 47 44 65 12 29 15 30 15 12 1 -33 14 -28 33 15 l18 37 -5 -32 c-5
-37 9 -52 24 -26 9 16 10 16 11 1 0 -25 38 -11 54 21 7 14 21 51 31 81 22 69
37 87 33 40 -2 -28 1 -35 14 -34 15 1 15 -1 -2 -25 -19 -27 -36 -86 -23 -78 4
3 28 46 53 96 24 50 48 91 52 91 4 0 3 -12 -2 -26 -6 -14 -7 -30 -4 -36 4 -6
3 -8 -3 -5 -5 3 -21 -19 -36 -49 -32 -65 -33 -68 -7 -54 21 11 29 36 8 25 -7
-4 -4 1 7 10 11 9 19 23 17 32 -2 8 1 12 6 9 5 -3 15 6 22 19 8 16 22 25 37
25 16 0 23 6 23 19 0 11 6 21 13 24 9 3 9 7 0 18 -10 12 -8 28 8 79 11 35 25
70 32 78 7 8 22 56 34 106 30 126 28 77 -2 -69 -14 -66 -25 -121 -25 -123 0
-2 -4 -1 -9 2 -5 3 -11 -3 -14 -13 -3 -14 0 -19 13 -18 12 1 21 12 24 32 5 20
9 26 15 17 5 -8 14 10 25 50 23 81 49 144 54 129 2 -6 -4 -34 -13 -61 -9 -28
-14 -58 -11 -66 4 -10 2 -13 -7 -8 -8 6 -8 3 1 -9 8 -9 11 -25 7 -38 -4 -13
-10 -17 -14 -11 -4 7 -12 -2 -19 -21 -11 -30 -10 -31 4 -12 15 19 16 18 12
-17 -3 -27 -1 -34 8 -27 8 7 11 -1 9 -31 -2 -31 2 -41 17 -46 32 -10 62 42
112 192 29 87 62 147 50 89 -4 -16 -22 -77 -41 -135 -46 -140 -46 -182 -4
-219 13 -11 20 -24 17 -29 -9 -15 25 -50 66 -67 35 -14 38 -14 52 7 16 22 16
22 16 -13 0 -34 23 -79 40 -79 5 0 19 21 31 48 28 61 36 40 10 -27 l-19 -52
22 -22 c34 -34 79 -118 87 -162 9 -44 -6 -162 -22 -181 -6 -7 -10 -31 -11 -53
0 -31 -8 -49 -36 -82 -24 -27 -36 -51 -34 -65 2 -13 -2 -32 -8 -44 -11 -20
-10 -21 9 -10 27 14 26 8 -1 -40 -15 -26 -29 -38 -41 -37 -28 3 -75 -61 -83
-113 -7 -40 -6 -44 8 -32 11 8 18 9 22 3 10 -16 30 -3 50 30 22 38 30 33 15
-9 -8 -23 -28 -42 -74 -70 -57 -34 -62 -39 -50 -56 10 -12 20 -16 36 -11 32
10 15 -10 -20 -25 -17 -7 -32 -21 -34 -33 -2 -12 -5 -3 -7 21 -3 45 -3 47 -14
77 -24 66 -39 67 -67 5 -12 -27 -26 -50 -31 -50 -5 0 -4 10 3 21 19 36 29 79
18 79 -6 0 -24 -29 -41 -65 -17 -36 -35 -64 -42 -62 -11 4 -11 14 -3 89 3 29
1 37 -14 41 -11 3 -19 0 -19 -7 0 -6 -9 -12 -19 -12 -14 0 -17 4 -11 11 7 8 5
12 -5 12 -8 0 -15 -4 -15 -9 0 -5 -4 -7 -9 -4 -4 3 -19 -3 -31 -14 -29 -25
-33 -25 -25 -1 3 11 1 22 -5 26 -5 3 -10 2 -10 -3 0 -5 -13 -8 -28 -6 -25 3
-30 -2 -42 -34 -13 -36 -14 -36 -20 -12 l-6 25 -8 -22 c-9 -28 -23 -29 -31 -3
-4 11 -10 18 -15 15 -5 -3 -10 3 -12 12 -2 10 -10 -6 -17 -35 -17 -67 -36 -82
-28 -21 5 37 4 40 -5 21 -13 -26 -32 -30 -24 -4 16 56 17 92 3 106 -13 14 -16
14 -21 0 -3 -8 -2 -12 3 -9 5 3 12 1 15 -4 5 -8 -39 -26 -56 -23 -4 1 -4 -6
-1 -15 4 -10 2 -14 -4 -10 -6 4 -15 -11 -22 -33 -15 -49 -30 -52 -28 -5 1 19
4 35 7 35 12 0 2 72 -11 81 -10 6 -17 1 -27 -21 -6 -17 -15 -30 -20 -30 -8 0
-8 52 1 67 7 11 -1 23 -15 23 -5 0 -7 -4 -3 -9 3 -5 -2 -11 -12 -13 -11 -2
-30 -42 -60 -128 -24 -69 -41 -113 -38 -97 3 15 1 27 -5 27 -5 0 -10 7 -10 15
0 8 7 15 15 15 8 0 15 3 16 8 1 8 18 158 21 184 1 9 6 14 11 11 5 -3 8 0 5 8
-5 14 -55 31 -62 21 -2 -4 -16 -45 -30 -91 -15 -46 -31 -91 -36 -100 -14 -23
-5 61 14 121 8 27 10 45 5 42 -13 -8 -11 10 3 24 8 8 8 15 -1 26 -7 9 -10 24
-6 37 8 23 -7 39 -38 39 -12 0 -16 -4 -11 -12 5 -9 3 -9 -9 1 -14 11 -17 11
-21 0 -41 -135 -94 -285 -89 -254 3 22 7 62 8 88 0 27 6 52 13 55 15 10 34 96
21 100 -6 3 -5 9 2 18 9 11 9 14 0 14 -7 0 -9 5 -6 10 9 14 -11 12 -23 -3 -6
-6 -14 -25 -17 -40 -5 -17 -12 -26 -20 -23 -15 5 -30 -21 -34 -58 0 -7 -10
-16 -20 -19 -18 -4 -18 -1 6 62 13 36 29 68 34 72 16 9 4 52 -17 60 -12 5 -14
8 -4 8 10 1 7 7 -9 17 -23 16 -24 16 -41 -6 -10 -13 -36 -82 -60 -154 -23 -72
-48 -149 -55 -171 -8 -22 -14 -32 -14 -21 -1 22 22 114 55 220 13 43 22 81 20
84 -3 3 -8 -3 -12 -12 -3 -9 -11 -13 -17 -9 -6 4 -8 0 -4 -10 3 -8 0 -20 -6
-26 -7 -5 -21 -34 -31 -65 -10 -30 -25 -58 -34 -61 -9 -3 -12 -1 -9 7 3 7 22
56 42 108 20 52 43 108 51 124 8 16 11 27 7 23 -3 -4 -13 -1 -22 7 -16 13 -84
28 -76 17 2 -4 -3 -17 -11 -31 l-15 -25 6 25 6 25 -16 -25 c-39 -64 -43 -87
-44 -247 l0 -158 30 60 c16 33 26 49 23 35 -4 -14 -17 -47 -30 -74 l-24 -50 0
-1438 0 -1438 564 0 563 0 73 163 c40 89 83 180 95 202 12 22 28 57 34 77 11
33 31 53 31 30 0 -22 -34 -108 -46 -118 -16 -13 -82 -160 -109 -244 -10 -30
-24 -67 -32 -83 l-14 -27 5230 0 c4174 0 5230 3 5234 13 4 9 6 9 6 0 1 -10
164 -13 782 -13 733 0 783 1 795 18 13 16 13 16 14 0 0 -11 8 -18 19 -18 14 0
23 17 41 80 13 44 27 80 31 80 12 0 11 -6 -11 -80 -11 -36 -20 -68 -20 -72 0
-5 95 -8 210 -8 116 0 210 2 210 4 0 1 11 33 24 70 14 37 23 73 20 80 -3 7 6
21 20 30 l26 16 -21 -39 c-18 -35 -49 -131 -49 -153 0 -5 80 -8 178 -8 l178 0
18 50 c10 28 21 49 23 46 3 -3 -2 -25 -10 -50 l-16 -46 224 0 225 0 26 51 c14
28 28 49 31 46 2 -3 -7 -26 -22 -51 -24 -42 -25 -46 -8 -46 15 0 29 39 88 248
45 159 69 260 67 285 -4 46 15 49 23 3 5 -24 -1 -56 -18 -108 -14 -40 -35
-109 -47 -153 -12 -44 -35 -119 -51 -167 -16 -48 -29 -92 -29 -98 0 -6 53 -10
144 -10 l145 0 14 52 c9 29 18 73 22 98 7 49 34 149 44 165 27 44 31 93 30
425 -1 308 -3 342 -16 315 l-14 -30 5 40 c3 22 10 41 16 43 5 2 10 26 10 54 0
41 -3 49 -15 44 -10 -4 -19 2 -24 16 l-8 22 -11 -21 c-7 -12 -21 -24 -31 -28
-12 -4 -18 -12 -14 -21 3 -7 0 -14 -7 -14 -6 0 -8 -5 -5 -10 3 -6 2 -10 -2
-10 -5 0 -14 -14 -20 -30 -16 -44 -33 -38 -22 8 12 51 11 56 -4 43 -8 -6 -17
-8 -20 -4 -4 3 -7 0 -7 -8 0 -11 -2 -11 -10 1 -9 13 -10 13 -10 0 -1 -11 -4
-10 -15 4 -8 11 -15 25 -15 30 0 6 4 5 9 -2 6 -11 9 -9 13 6 4 15 2 19 -8 15
-8 -3 -21 0 -28 7 -20 16 -38 -19 -30 -59 6 -29 5 -31 -22 -31 -19 0 -24 -3
-16 -8 10 -7 10 -14 -3 -38 -10 -19 -15 -23 -15 -11 0 15 -11 21 -32 19 -3 -1
-12 6 -20 15 -7 9 -8 14 -3 11 18 -11 36 7 50 48 11 32 11 41 -2 60 -15 24
-43 39 -43 24 0 -5 5 -12 10 -15 6 -3 10 -16 10 -28 0 -17 -2 -19 -9 -7 -6 8
-8 17 -5 21 2 4 -3 9 -11 13 -10 4 -15 -2 -17 -17 -2 -35 -3 -41 -9 -52 -4 -5
-16 -41 -29 -78 -24 -74 -39 -86 -20 -17 17 62 7 58 -25 -12 -37 -81 -43 -61
-11 38 14 43 24 79 22 82 -2 2 -7 -6 -11 -17 -3 -12 -11 -21 -16 -21 -6 0 -8
-9 -4 -19 4 -14 0 -23 -14 -30 -28 -15 -31 -14 -32 12 0 22 0 22 -10 -2 -5
-13 -7 -33 -4 -45 4 -14 3 -17 -3 -8 -6 9 -16 -11 -33 -63 -13 -41 -27 -75
-31 -75 -10 0 -4 24 37 153 33 99 33 101 14 118 -25 21 -24 32 2 24 20 -7 20
-6 3 20 -10 15 -20 23 -22 16 -2 -6 -8 -9 -13 -5 -5 3 -9 2 -8 -3 1 -4 0 -17
-1 -28 -1 -16 -4 -14 -10 8 -5 16 -6 35 -3 43 3 8 0 14 -7 14 -6 0 -8 -5 -5
-10 3 -6 -2 -10 -12 -10 -15 0 -18 -9 -18 -59 0 -33 -4 -57 -8 -54 -4 2 -5 -8
-1 -23 5 -18 3 -25 -4 -20 -6 4 -8 -2 -4 -16 3 -14 2 -19 -6 -14 -8 5 -12 -1
-12 -16 0 -13 -5 -30 -10 -38 -8 -13 -11 -12 -24 5 -18 24 -19 32 -6 40 6 3
10 0 11 -7 0 -7 9 14 19 46 11 34 16 72 13 89 -4 19 -1 32 8 38 9 5 4 7 -15 5
-16 -2 -36 -12 -44 -22 -14 -18 -14 -17 -8 7 4 21 1 30 -18 42 -15 10 -25 29
-30 56 -4 26 -13 44 -26 51 -18 10 -21 7 -26 -20 -4 -16 -11 -30 -15 -30 -8 0
-5 29 7 68 2 7 -5 21 -16 32 -16 16 -25 18 -45 10 -18 -7 -25 -6 -25 2 0 7 -6
3 -14 -8 -8 -10 -26 -19 -40 -19 -19 -1 -23 2 -14 12 5 7 15 10 21 6 6 -4 7
-1 2 6 -5 9 -13 7 -29 -8 -32 -30 -71 -36 -94 -14 -11 10 -22 25 -26 33 -3 8
-4 -3 -3 -24 3 -31 0 -40 -15 -44 -15 -4 -18 -15 -18 -84 0 -75 -2 -82 -35
-125 -19 -25 -35 -51 -35 -57 0 -6 -9 -28 -20 -49 -12 -21 -34 -72 -50 -113
-16 -40 -34 -82 -39 -91 -5 -10 -17 -37 -27 -61 -17 -42 -17 -43 4 -65 26 -27
28 -66 7 -106 -8 -16 -11 -32 -7 -36 4 -5 2 -5 -5 -1 -8 4 -14 -3 -18 -21 -3
-15 -12 -41 -20 -56 -8 -16 -15 -35 -15 -42 0 -7 -7 -16 -16 -19 -9 -4 -14
-13 -10 -21 3 -9 -1 -18 -9 -21 -8 -4 -15 -15 -15 -25 0 -10 -4 -19 -10 -19
-5 0 -10 -9 -10 -19 0 -10 -6 -21 -13 -24 -7 -3 -26 -47 -41 -98 -16 -52 -33
-98 -37 -103 -22 -24 -18 10 11 103 17 56 28 106 24 113 -4 6 0 16 8 22 8 6
18 20 22 31 5 17 1 21 -17 22 -12 0 -16 -1 -9 -4 14 -5 17 -33 3 -33 -6 0 -13
5 -16 10 -4 6 -13 4 -22 -6 -15 -15 -17 -15 -25 7 l-9 23 -15 -23 c-10 -14
-23 -21 -34 -18 -12 3 -22 -4 -30 -19 -7 -13 -17 -21 -22 -18 -4 3 -1 12 7 20
17 17 20 60 5 69 -5 3 -6 13 -3 22 6 15 5 16 -9 3 -9 -8 -13 -17 -9 -20 13
-10 10 -48 -5 -60 -8 -7 -17 -10 -20 -7 -10 10 5 39 16 32 6 -3 7 1 4 9 -9 24
-22 19 -39 -14 -9 -17 -17 -30 -19 -30 -6 0 -1 65 6 70 3 3 1 13 -6 22 -11 15
-16 9 -45 -47 -17 -36 -36 -65 -41 -65 -15 0 -13 4 25 80 35 70 49 113 17 52
l-18 -33 -20 22 c-10 12 -13 19 -5 14 10 -6 10 -2 -2 16 -8 13 -13 33 -12 43
5 29 -13 56 -36 56 -11 0 -17 5 -14 10 3 6 1 10 -4 10 -14 0 -14 -1 9 -51 29
-64 25 -79 -11 -39 -38 42 -46 89 -25 150 18 50 21 130 6 130 -5 0 -10 7 -10
15 0 8 5 15 10 15 13 0 2 109 -13 127 -5 7 -11 83 -13 169 -3 86 -9 164 -14
174 -5 9 -7 55 -3 104 4 56 2 86 -4 86 -7 0 -9 18 -5 46 3 33 2 45 -6 40 -13
-8 -16 4 -31 124 -13 99 -7 210 11 222 10 6 10 8 1 8 -14 0 -6 28 13 47 6 7
12 30 12 51 0 21 10 68 21 103 11 35 20 78 19 94 0 17 13 58 30 91 17 34 29
64 26 67 -4 3 -2 12 2 19 5 7 9 24 10 38 0 14 6 38 12 53 7 16 12 31 12 34 0
3 7 21 16 41 41 97 45 108 29 88 -28 -36 -23 -11 8 44 37 66 40 73 41 123 0
20 4 37 9 37 4 0 5 5 2 11 -4 6 -7 27 -6 47 1 47 -18 131 -36 158 -7 11 -18
56 -23 100 -5 43 -15 102 -20 130 -6 29 -9 116 -6 200 4 152 0 214 -14 214 -5
0 -11 -8 -14 -17 -31 -107 -79 -253 -82 -250 -3 2 14 69 37 148 57 200 67 362
26 425 -12 20 44 216 58 202 5 -4 97 -492 135 -713 74 -427 81 -459 120 -555
17 -41 40 -105 50 -142 21 -78 51 -149 125 -303 28 -60 62 -141 75 -180 12
-38 26 -78 31 -87 5 -9 13 -44 18 -77 5 -33 14 -68 19 -78 6 -10 25 -62 43
-116 19 -56 41 -103 50 -108 14 -7 32 17 112 154 53 89 101 175 106 190 14 36
14 70 1 62 -7 -4 -9 4 -6 21 6 31 -40 408 -79 658 -16 97 -40 204 -64 275 -56
171 -68 233 -91 476 -11 121 -29 303 -39 405 -38 371 -44 495 -33 675 10 171
10 225 -3 244 -3 6 -2 11 3 11 5 0 8 15 6 33 -3 23 -1 28 6 17 5 -8 10 -28 10
-45 1 -26 4 -22 20 24 11 30 22 56 24 58 10 11 27 -10 20 -26 -3 -9 -10 -36
-15 -60 -8 -39 -7 -46 15 -66 14 -13 24 -25 23 -27 -1 -2 3 3 10 10 6 8 22 47
35 88 21 70 38 95 38 57 0 -24 -25 -104 -43 -139 -28 -55 -30 -91 -8 -110 22
-19 66 -30 56 -14 -4 6 2 7 17 1 18 -7 30 -4 53 14 59 44 237 116 252 102 3
-3 19 2 36 12 23 12 40 15 60 10 26 -7 30 -5 48 34 10 23 19 50 19 59 0 9 4
19 9 23 5 3 1 -24 -9 -60 l-19 -66 25 -9 c14 -6 30 -10 35 -10 6 0 25 -11 44
-26 23 -17 35 -21 40 -13 8 13 65 -76 65 -102 0 -9 6 -22 14 -28 11 -10 17 -8
25 6 6 10 10 14 11 8 0 -5 -4 -16 -9 -24 -6 -10 -1 -27 15 -52 13 -21 24 -43
24 -49 0 -5 5 -10 11 -10 6 0 8 -10 5 -23 l-6 -22 11 23 c14 26 35 30 24 5
-11 -27 -17 -85 -10 -102 5 -13 12 -9 36 19 40 47 37 31 -5 -27 -33 -46 -40
-66 -37 -107 1 -20 1 -20 17 0 15 18 15 18 9 -3 -3 -13 -2 -31 4 -40 6 -10 11
-13 11 -7 0 5 7 19 16 30 15 19 16 19 9 -1 -4 -11 -8 -38 -10 -60 l-4 -40 13
35 c8 19 19 34 25 33 6 -2 11 2 11 7 0 6 8 10 17 8 13 -2 23 11 39 50 25 62
38 78 30 37 -6 -28 -6 -28 5 -7 7 12 19 22 26 22 8 0 17 9 20 21 3 12 9 16 12
10 8 -12 71 7 71 22 0 4 5 5 10 2 7 -4 10 190 10 574 0 320 -2 581 -4 581 -2
0 -19 -7 -37 -15 -66 -30 -114 -63 -124 -84 -6 -14 -16 -20 -28 -17 -9 2 -15
0 -12 -5 3 -4 -8 -15 -25 -24 -30 -15 -60 -60 -60 -90 0 -8 -5 -15 -11 -15 -7
0 -9 11 -5 30 7 37 -14 41 -41 8 -10 -13 -27 -30 -37 -38 -18 -14 -19 -13 -12
5 4 11 10 27 14 35 3 9 -5 6 -20 -8 -22 -20 -26 -21 -32 -7 -3 9 -4 21 0 26 3
5 0 9 -5 9 -6 0 -11 -4 -11 -8 0 -4 -9 -8 -19 -8 -11 0 -18 4 -15 7 2 4 0 10
-5 13 -11 7 -46 -39 -67 -90 -8 -20 -17 -34 -20 -32 -2 3 5 25 16 49 24 55 26
83 4 54 -16 -20 -16 -20 -10 2 13 43 -84 70 -151 44 -18 -7 -33 -17 -33 -22 0
-5 -4 -9 -10 -9 -5 0 -10 7 -10 16 0 11 -5 14 -16 10 -8 -3 -29 1 -46 10 -25
13 -32 14 -39 2 -7 -10 -9 -9 -9 5 0 19 -20 24 -20 5 0 -10 -3 -9 -9 1 -8 12
-64 22 -138 25 -17 1 -29 4 -27 7 7 12 -93 4 -107 -8 -8 -6 -30 -41 -49 -77
-19 -36 -38 -66 -42 -66 -14 0 -9 15 21 62 44 70 46 83 12 83 -16 0 -33 -3
-37 -7 -4 -4 -13 -3 -19 2 -17 14 -139 -25 -129 -41 3 -5 -2 -6 -10 -3 -9 3
-23 -1 -31 -10 -15 -15 -15 -17 2 -23 10 -4 24 -15 31 -25 23 -32 40 -15 19
20 -9 13 2 16 19 4 12 -8 13 -64 0 -73 -4 -4 -2 -17 5 -30 16 -30 29 -109 17
-109 -4 0 -8 9 -8 20 0 11 -4 28 -9 38 -5 9 -15 32 -22 51 -7 18 -33 55 -59
81 -75 77 -169 116 -311 128 l-74 7 -1 195 c-1 130 -6 205 -14 225 -8 19 -14
92 -15 201 l-2 170 -67 130 c-38 75 -68 148 -72 174 -10 70 -35 115 -64 115
-32 0 -57 15 -41 25 14 8 -31 60 -51 59 -10 0 -10 -2 -1 -6 7 -2 13 -12 13
-21 0 -12 -7 -9 -28 11 -15 15 -33 27 -39 27 -7 0 -14 9 -18 19 -6 20 -65 99
-65 87 0 -3 -9 2 -20 11 -11 10 -20 27 -20 38 0 12 -4 25 -9 30 -5 6 -18 35
-28 65 -10 30 -23 54 -30 53 -9 -2 -108 113 -108 127 -1 14 -18 29 -27 24 -6
-4 -8 -2 -4 4 7 12 -146 132 -169 132 -9 0 -18 6 -21 14 -3 8 -16 17 -29 20
-13 3 -30 12 -38 20 -33 34 -141 53 -297 55 -151 2 -212 -11 -286 -61 -23 -15
-49 -28 -57 -28 -9 0 -28 -11 -42 -25 -22 -20 -30 -22 -46 -12 -15 9 -24 8
-48 -6 -28 -16 -29 -16 -24 2 3 12 17 21 38 25 21 4 46 20 65 43 29 32 41 38
84 42 6 1 1 7 -9 15 -18 13 -18 14 7 9 24 -5 26 -2 26 30 0 19 5 44 11 56 7
11 10 21 7 21 -3 0 2 16 10 36 11 26 12 39 4 44 -19 11 -21 57 -6 122 8 35 12
66 10 70 -3 5 -90 8 -194 8 -188 0 -189 0 -193 -22 l-4 -23 -2 23 -1 22 -315
0 -314 0 -10 -37 c-31 -121 -41 -163 -41 -180 0 -45 -30 -118 -52 -128 -13 -5
-23 -17 -23 -25 0 -8 -5 -19 -11 -25 -15 -14 -25 -45 -14 -45 5 0 7 -26 4 -57
l-4 -58 35 70 c19 39 34 76 35 83 0 6 5 12 10 12 6 0 3 -16 -6 -37 -42 -95
-76 -188 -90 -246 -8 -34 -24 -84 -34 -112 -58 -151 -70 -221 -58 -342 1 -7 5
-10 9 -8 4 3 10 -13 14 -35 8 -46 23 -60 40 -37 13 18 26 13 20 -6 -20 -68
-11 -84 28 -50 20 18 20 18 1 -17 -14 -27 -18 -59 -19 -143 -1 -61 2 -100 7
-88 4 12 12 21 18 21 13 0 4 -37 -22 -98 -10 -24 -18 -58 -17 -75 l1 -32 13
35 c12 31 14 32 14 10 1 -22 4 -21 27 17 14 24 28 43 31 43 5 0 -16 -37 -83
-149 -29 -48 -36 -90 -13 -76 9 6 6 -12 -9 -69 -12 -43 -9 -44 23 -10 l25 27
0 -24 c0 -19 2 -21 10 -9 6 9 8 -10 6 -55 -3 -68 -3 -69 11 -36 25 59 24 27
-2 -73 -14 -53 -25 -99 -25 -102 0 -2 -18 -4 -40 -2 -22 1 -40 6 -40 10 0 4
-4 8 -10 8 -5 0 -10 -11 -10 -24 0 -25 -25 -53 -34 -38 -3 5 -3 21 -1 35 5 23
2 26 -24 25 -24 -1 -30 -6 -35 -29 -3 -16 -10 -29 -16 -29 -6 0 -9 3 -7 8 3 4
1 16 -3 27 -10 28 -60 36 -84 13 -10 -9 -22 -15 -26 -13 -13 8 -41 -32 -39
-56 4 -47 -1 -68 -20 -79 -28 -14 -31 -2 -14 52 9 26 12 55 9 65 -7 17 -8 17
-21 0 -11 -15 -13 -16 -19 -2 -3 8 -11 15 -18 15 -17 0 -34 27 -43 68 -3 17
-14 36 -22 41 -12 6 -14 17 -9 41 4 25 2 38 -11 53 -10 10 -17 22 -17 26 1 3
-2 16 -7 29 -5 13 -9 32 -9 43 0 21 -10 25 -26 9 -7 -7 -10 2 -10 25 0 36 -29
79 -47 68 -7 -4 -8 7 -3 33 4 21 7 50 7 63 -1 13 6 49 14 81 17 66 19 116 6
125 -6 3 -15 -3 -21 -12 -10 -16 -11 -16 -5 2 10 30 32 147 33 175 1 14 2 35
2 48 0 13 4 21 8 18 5 -3 6 8 4 24 -6 42 -17 30 -36 -40 -9 -33 -21 -60 -25
-60 -18 0 -19 14 -4 44 23 44 45 140 33 144 -6 2 -10 19 -10 38 0 19 -4 34
-10 34 -5 0 -10 8 -11 18 0 9 -9 -1 -19 -23 -26 -55 -25 -19 1 75 23 85 19
181 -7 159 -19 -16 -18 -2 5 91 11 41 15 77 10 78 -5 2 -9 8 -9 13 0 6 5 7 10
4 6 -4 10 7 10 24 0 59 -17 30 -54 -91 -21 -68 -41 -132 -46 -143 -16 -36 -11
8 10 102 11 48 27 122 36 163 18 87 33 144 45 180 28 84 42 177 27 182 -4 2
-8 30 -9 63 -3 78 -7 91 -25 68 -13 -16 -14 -12 -12 32 2 34 7 49 16 47 6 -1
12 3 12 8 0 7 -106 9 -312 8 l-312 -3 -8 -40 c-14 -64 -32 -70 -24 -7 6 46 5
52 -12 52 -14 0 -23 -15 -37 -57 -20 -63 -32 -52 -16 17 5 23 6 38 1 34 -14
-15 -71 -285 -65 -307 5 -18 4 -19 -5 -7 -9 11 -9 4 -4 -30 4 -25 8 -57 9 -73
3 -42 12 -43 29 -3 23 55 27 43 5 -15 -12 -31 -17 -59 -12 -73 4 -11 6 -29 4
-38 -4 -29 9 -21 21 13 6 16 12 28 15 26 2 -3 -3 -24 -11 -48 -18 -51 -20 -79
-6 -79 6 0 10 -5 10 -10 0 -6 -6 -9 -12 -8 -18 4 -9 -72 14 -119 6 -13 9 -26
5 -29 -3 -4 19 -40 49 -81 31 -42 69 -105 84 -142 16 -36 34 -65 40 -63 5 1
10 -15 11 -35 l1 -38 15 43 c8 23 19 42 24 42 13 0 11 -22 -7 -71 -9 -24 -17
-51 -18 -59 -1 -8 -7 -25 -13 -36 -7 -12 -10 -23 -8 -26 7 -7 -64 -120 -100
-160 -42 -47 -98 -62 -224 -62 -62 0 -109 -5 -113 -11 -5 -6 -8 -3 -8 8 0 32
-21 17 -41 -29 -12 -25 -22 -44 -24 -42 -2 2 1 28 7 58 6 37 6 56 0 58 -6 2
-26 16 -44 32 -18 17 -36 30 -41 30 -4 0 -36 29 -71 65 -35 35 -66 62 -70 58
-3 -3 -6 1 -6 9 0 9 -16 30 -35 47 -19 17 -35 36 -35 43 0 9 -3 8 -10 -2 -6
-10 -9 2 -9 42 1 31 -4 64 -9 75 -10 16 -12 14 -26 -17 l-16 -35 5 38 c3 20 8
53 11 73 3 24 2 34 -5 29 -6 -3 -11 -3 -11 2 0 14 39 116 56 146 9 15 13 34
11 41 -3 8 -2 17 3 22 12 14 22 142 11 148 -5 4 -12 -3 -16 -14 -11 -36 -23
-21 -14 18 13 55 10 71 -6 42 l-15 -25 6 30 c3 17 8 36 10 44 3 8 0 17 -5 21
-15 9 -1 50 16 50 11 0 14 8 11 32 -3 18 -2 46 3 61 7 24 4 33 -18 53 -14 13
-29 21 -34 19 -17 -11 -40 64 -42 137 -1 42 -5 74 -8 72 -4 -2 -10 3 -13 12
-3 8 -2 13 3 10 5 -4 4 5 -2 19 -11 23 -18 25 -74 25 -68 0 -66 1 -78 -75 -23
-145 -40 -213 -60 -240 -12 -16 -27 -47 -34 -67 -7 -21 -17 -41 -23 -45 -8 -4
-9 0 -4 13 5 10 17 44 27 74 10 30 23 64 29 75 9 18 60 237 60 256 0 5 -542 9
-1225 9 l-1225 0 0 -86 c0 -47 -7 -117 -16 -155 -9 -38 -13 -76 -10 -84 3 -8
1 -15 -4 -15 -6 0 -10 -27 -10 -61 0 -33 -4 -68 -9 -77 -5 -10 -7 -39 -4 -66
5 -44 7 -47 19 -31 16 21 19 12 5 -13 -6 -11 -4 -21 5 -30 8 -7 14 -9 14 -4 0
4 7 17 15 28 12 16 12 12 -1 -31 -8 -28 -17 -101 -18 -165 -3 -106 -2 -113 11
-85 l14 30 -6 -34 c-6 -41 2 -35 26 17 10 20 18 30 18 22 1 -8 -14 -40 -32
-70 -56 -93 -66 -172 -19 -155 6 2 12 0 12 -5 0 -5 -49 -7 -117 -5 -65 2 -124
1 -131 -4 -9 -6 -12 -40 -10 -137 l3 -129 55 -2 c30 -1 84 -4 120 -7 36 -3 81
-6 100 -7 l35 -1 -30 -9 c-16 -4 -46 -6 -65 -3 -31 5 -36 3 -37 -15 -2 -25 9
-27 27 -6 25 30 21 6 -8 -46 -25 -46 -29 -67 -31 -136 -2 -76 -1 -82 16 -76
15 5 16 3 6 -8 -18 -19 -17 -73 1 -66 10 4 12 0 9 -14 -4 -13 0 -19 11 -19 9
0 16 -4 16 -10 0 -5 -4 -10 -10 -10 -5 0 -10 -8 -10 -17 -1 -17 -1 -17 -11 0
-5 9 -15 17 -20 17 -6 0 -7 -4 -4 -10 3 -5 1 -10 -6 -10 -6 0 -9 -8 -6 -20 3
-10 0 -21 -7 -23 -8 -3 -7 -11 2 -27 12 -20 12 -22 -2 -17 -22 9 -21 -21 1
-45 16 -18 16 -18 0 -12 -16 6 -22 -4 -18 -28 0 -5 -5 -9 -12 -9 -6 -1 2 -5
18 -9 l30 -7 -30 -13 -30 -13 30 -7 30 -7 -33 -4 -33 -4 28 -30 c15 -17 25
-26 21 -21 -18 23 -6 28 15 8 l24 -22 43 102 c24 57 47 107 52 112 17 20 7
-14 -32 -108 -22 -53 -40 -102 -40 -109 0 -8 9 -22 20 -32 19 -17 20 -17 40
29 23 54 24 60 10 51 -17 -11 -11 7 8 21 53 40 31 -21 -98 -268 l-40 -77 23
-23 c15 -15 35 -23 55 -23 18 1 32 -4 32 -11 0 -15 23 -24 65 -24 18 0 35 -6
37 -12 3 -7 35 50 73 127 73 152 73 151 80 143 3 -2 -16 -47 -41 -98 -47 -98
-66 -190 -39 -190 7 0 15 -4 17 -10 2 -5 27 -19 57 -30 44 -16 57 -17 70 -7
12 10 14 9 8 -5 -6 -16 7 -32 25 -33 4 0 16 -8 27 -17 34 -29 59 -38 121 -45
50 -5 64 -3 81 13 15 13 18 14 14 3 -7 -18 22 -22 42 -7 7 5 14 5 18 -2 9 -14
62 -13 68 3 4 9 6 8 6 -2 1 -11 6 -10 21 4 19 18 20 17 20 -3 0 -19 3 -20 24
-12 20 7 27 5 41 -16 12 -19 21 -23 43 -18 15 3 37 7 48 9 12 2 31 8 42 14 18
9 23 8 32 -9 20 -38 60 -22 98 38 19 28 36 52 38 52 2 0 -7 -22 -21 -50 -30
-59 -31 -64 -6 -51 10 6 21 8 24 5 3 -3 13 8 23 25 22 38 37 41 24 5 -13 -34
-13 -34 13 -32 12 0 52 -7 89 -16 37 -10 72 -15 78 -11 5 3 10 1 10 -6 0 -14
205 -6 223 10 8 6 18 6 27 1 19 -12 33 -13 25 -1 -3 5 -1 12 5 16 5 3 10 2 10
-3 0 -5 31 -12 69 -14 65 -5 115 -25 154 -61 6 -7 30 -18 52 -26 22 -8 49 -24
60 -36 28 -32 86 -60 70 -35 -3 6 -1 10 4 10 6 0 11 -4 11 -8 0 -5 14 -24 30
-42 27 -31 34 -43 32 -62 -3 -16 27 -14 41 2 8 10 14 20 12 22 -2 1 9 12 23
22 14 11 22 14 18 8 -4 -7 -2 -12 3 -12 6 0 11 6 11 14 0 8 7 13 16 12 11 -1
26 26 52 89 19 50 39 92 43 95 4 3 13 18 19 34 18 49 23 20 5 -33 -14 -42 -14
-56 -5 -84 11 -29 10 -38 -15 -85 -15 -29 -25 -61 -22 -72 3 -10 0 -21 -7 -24
-6 -3 -1 -3 11 0 18 4 22 2 17 -10 -4 -11 -1 -16 10 -16 11 0 16 -9 16 -30 0
-18 5 -30 13 -30 31 0 8 -84 -26 -95 -12 -4 -24 -8 -27 -10 -3 -1 -14 -6 -25
-11 -35 -16 -148 -11 -178 9 -45 29 -74 23 -97 -23 -22 -44 -35 -53 -25 -17 4
12 9 30 12 41 3 12 1 16 -6 12 -6 -4 -11 -2 -11 5 0 7 -6 5 -13 -5 -12 -17
-14 -17 -20 -3 -4 10 -13 14 -22 11 -8 -3 -13 -10 -10 -14 3 -4 -2 -10 -9 -13
-10 -4 -16 2 -18 18 -3 23 -4 24 -34 9 -17 -8 -40 -32 -52 -52 -11 -21 -29
-38 -39 -39 -76 -7 -130 -17 -140 -25 -9 -7 -15 -5 -19 6 -5 14 -21 15 -118
10 -69 -4 -115 -11 -121 -19 -7 -9 -15 -9 -27 -1 -14 8 -23 5 -48 -19 l-30
-29 6 31 c7 33 9 33 -78 24 -4 -1 -17 -18 -28 -38 -18 -35 -19 -36 -13 -9 l6
30 -32 -35 -33 -34 26 40 26 40 -47 10 c-37 9 -50 8 -56 -2 -11 -18 -31 -17
-24 1 7 19 -50 46 -96 46 -38 0 -77 -36 -77 -70 0 -10 -7 -21 -16 -24 -14 -5
-14 -4 -5 7 12 15 27 97 17 97 -4 0 -16 -15 -27 -32 -17 -26 -20 -28 -16 -10
7 30 -33 52 -58 32 -10 -8 -15 -9 -15 -1 0 19 -20 12 -47 -16 -24 -26 -26 -27
-20 -5 6 27 -8 29 -30 2 -10 -11 -22 -20 -27 -20 -5 0 -15 -8 -22 -18 -12 -16
-13 -15 -14 5 0 13 -3 22 -7 21 -5 -1 -19 4 -32 11 -31 17 -100 6 -118 -19 -8
-12 -20 -17 -29 -13 -14 5 -13 9 7 24 23 17 22 18 -64 16 -48 -1 -87 1 -87 5
0 4 -55 6 -122 4 -100 -3 -124 -6 -126 -19 -2 -8 -17 -17 -34 -21 -46 -9 -48
-8 -39 17 7 17 2 39 -16 82 -24 57 -25 66 -20 220 4 158 -10 331 -31 371 -5
11 -12 36 -16 57 -5 26 -12 37 -20 34 -18 -7 -36 12 -36 39 0 13 -8 30 -17 40
-10 10 -30 42 -45 71 -15 30 -41 71 -58 92 -16 22 -30 44 -30 50 0 12 -39 35
-47 27 -3 -3 -30 13 -61 36 -30 22 -51 35 -47 28 5 -9 2 -10 -15 -5 -17 5 -21
4 -14 -6 4 -8 9 -22 9 -31 1 -10 10 -26 19 -37 22 -25 12 -48 -11 -25 -9 9
-26 14 -39 11 -15 -2 -29 4 -43 22 -12 14 -21 29 -21 34 0 4 -9 24 -20 44 -24
45 -25 53 -5 53 8 0 15 -4 15 -9 0 -13 25 -20 39 -12 8 5 -1 17 -26 34 -21 15
-58 43 -83 62 -31 24 -56 35 -80 35 -20 0 -62 15 -100 36 -36 19 -99 49 -140
65 -78 32 -226 108 -272 140 -14 11 -29 19 -33 19 -13 0 -76 42 -71 47 2 2 25
-3 50 -11 54 -18 78 -9 97 36 17 41 7 138 -16 154 -10 8 -16 17 -12 21 4 3 15
-2 26 -11 22 -20 27 -15 36 37 4 20 20 54 35 75 15 20 29 44 32 52 3 9 7 5 10
-12 3 -17 1 -28 -6 -28 -15 0 -39 -57 -32 -75 3 -8 0 -15 -7 -15 -8 0 -7 -4 3
-10 13 -9 13 -11 1 -19 -11 -7 -12 -15 -4 -38 15 -38 16 -103 3 -103 -6 0 -8
-5 -4 -11 4 -8 9 -7 15 2 8 12 10 12 18 0 6 -10 10 -10 16 -1 4 7 1 16 -6 21
-8 5 -9 9 -4 9 22 0 33 -17 30 -47 -1 -18 1 -30 6 -27 5 3 7 9 4 14 -3 4 -2
10 2 12 5 1 16 20 25 41 15 32 16 37 3 37 -8 0 -15 7 -15 15 0 21 52 125 63
125 5 0 -5 -25 -23 -56 -25 -44 -29 -59 -19 -65 8 -4 14 -7 15 -6 4 6 84 190
84 194 0 3 -7 0 -16 -8 -13 -11 -14 -9 -9 14 13 51 -37 25 -87 -44 l-17 -24 9
30 c4 17 15 50 24 74 18 50 9 70 -32 74 -16 1 -19 5 -11 19 6 11 6 18 0 18 -5
0 -14 -13 -20 -30 -5 -16 -14 -30 -20 -30 -5 0 -12 -12 -14 -27 -2 -16 -3 -11
-2 10 2 25 -1 35 -8 31 -7 -3 5 10 26 28 42 37 46 57 17 83 -15 13 -20 31 -20
66 0 52 14 73 24 36 l6 -22 19 25 c11 13 19 27 18 30 -3 10 55 100 64 100 5 0
9 7 9 15 0 8 7 15 15 15 8 0 19 9 25 21 7 11 20 29 31 40 10 10 19 25 19 33 0
7 10 21 23 30 12 9 15 14 7 10 -28 -13 -2 8 32 25 23 12 41 35 62 77 15 32 31
61 35 64 4 3 15 23 23 45 10 26 22 39 33 39 10 -1 15 4 12 15 -2 9 2 27 8 41
13 25 12 41 0 72 -5 12 -2 20 8 24 9 3 22 35 32 75 10 39 23 76 30 83 7 7 15
38 17 69 l4 57 -880 0 -880 0 -35 -32 c-20 -18 -28 -24 -20 -13 34 43 33 45
-25 45 -52 0 -56 -2 -72 -32 -10 -18 -19 -28 -21 -21 -2 7 1 21 7 32 10 20 8
21 -39 21 l-50 0 -16 -56 c-9 -31 -14 -63 -11 -71 3 -8 2 -12 -3 -9 -5 3 -12
-10 -15 -29 -8 -41 2 -66 16 -42 4 9 17 14 28 12 11 -2 18 0 15 5 -3 5 0 12 5
15 11 7 9 -40 -10 -180 -10 -76 -4 -269 9 -294 6 -10 13 -43 15 -73 8 -99 18
-132 62 -215 24 -44 44 -88 44 -96 0 -9 11 -28 24 -44 14 -16 28 -43 32 -59 4
-16 11 -34 16 -40 14 -19 21 -55 21 -121 0 -35 4 -63 9 -63 5 0 2 -10 -6 -22
-9 -12 -16 -34 -16 -48 0 -14 -6 -32 -12 -39 -11 -12 -9 -13 7 -7 13 4 9 -3
-13 -21 -18 -16 -32 -32 -32 -37 0 -5 -12 -20 -27 -34 -23 -21 -28 -22 -38 -9
-13 19 -66 10 -108 -17 -14 -10 -32 -19 -39 -20 -32 -6 -58 -18 -53 -26 3 -5
0 -12 -6 -16 -8 -5 -9 -3 -4 6 4 7 4 11 -1 8 -5 -2 -26 -12 -46 -21 -39 -18
-52 -31 -20 -21 12 4 10 0 -7 -15 -24 -22 -47 -29 -36 -11 11 18 -6 11 -61
-26 -53 -36 -69 -58 -23 -33 17 9 24 9 27 0 2 -6 9 -8 14 -5 6 4 8 3 5 -3 -4
-6 -39 -13 -79 -16 -50 -4 -74 -11 -80 -22 -6 -10 -14 -12 -24 -7 -17 9 -108
-7 -141 -26 -17 -9 -27 -9 -49 3 l-28 14 30 12 c16 6 48 11 72 10 37 -2 47 2
73 31 l31 33 -23 6 -24 6 24 4 c35 6 36 23 4 37 l-28 11 33 -5 c32 -6 32 -5
73 83 80 173 131 302 123 314 -4 8 -3 9 4 5 7 -4 12 -2 12 3 0 18 -21 13 -54
-12 -76 -57 -71 -44 7 18 36 28 45 41 37 50 -7 9 -8 15 -1 19 5 4 9 28 9 54
-1 26 4 57 11 70 9 17 10 31 2 53 -5 16 -7 29 -3 29 4 0 8 9 8 19 0 11 -5 17
-11 13 -5 -3 -4 1 3 10 9 12 10 18 2 23 -6 4 -12 5 -13 4 -2 -2 -11 -20 -20
-39 l-18 -35 5 30 c3 17 8 39 11 50 4 11 -8 -6 -26 -38 -18 -31 -34 -56 -36
-54 -2 2 17 50 41 105 24 56 40 99 35 96 -12 -7 -12 -4 6 46 14 39 14 42 -3
36 -15 -5 -15 -5 -1 6 17 14 47 64 32 55 -4 -3 -7 12 -5 34 2 21 2 39 -2 39
-3 0 -15 -23 -27 -50 -12 -28 -24 -49 -26 -46 -7 7 38 126 48 126 4 0 11 14
14 32 4 17 16 45 26 62 39 63 17 47 -26 -20 -24 -38 -45 -65 -45 -61 0 4 21
49 47 100 65 128 64 125 50 130 -7 3 -4 8 8 13 11 4 27 16 36 26 9 10 20 18
25 18 10 0 34 47 34 66 0 11 42 152 57 191 4 10 -7 13 -41 13 -43 0 -46 -2
-56 -32 l-10 -33 5 33 c4 31 4 32 -35 32 -45 0 -41 7 -79 -167 -19 -86 -38
-140 -46 -131 -2 2 2 22 10 43 7 22 20 74 29 117 9 42 20 88 26 103 5 14 10
28 10 31 0 2 -659 4 -1465 4 l-1465 0 0 -570z m2947 427 c-12 -64 -19 -118
-14 -120 4 -1 -5 -38 -20 -81 -29 -83 -46 -90 -18 -7 9 27 15 53 13 57 -3 10
28 183 45 249 20 82 16 15 -6 -98z m6314 101 c-3 -21 -6 -26 -9 -15 -3 17 3
47 11 47 2 0 1 -15 -2 -32z m-4131 12 c0 -5 -4 -10 -10 -10 -5 0 -10 5 -10 10
0 6 5 10 10 10 6 0 10 -4 10 -10z m-1580 -10 c0 -5 -5 -10 -11 -10 -5 0 -7 5
-4 10 3 6 8 10 11 10 2 0 4 -4 4 -10z m6187 -22 c-3 -7 -5 -2 -5 12 0 14 2 19
5 13 2 -7 2 -19 0 -25z m-6730 -30 c-3 -8 -6 -5 -6 6 -1 11 2 17 5 13 3 -3 4
-12 1 -19z m6240 -20 c-3 -7 -5 -2 -5 12 0 14 2 19 5 13 2 -7 2 -19 0 -25z
m-6110 6 c-3 -3 -12 -4 -19 -1 -8 3 -5 6 6 6 11 1 17 -2 13 -5z m34 -35 c-5
-13 -10 -19 -10 -12 -1 15 10 45 15 40 3 -2 0 -15 -5 -28z m127 -70 c-1 -50
-6 -93 -10 -95 -4 -3 -8 -13 -8 -23 0 -25 -18 -39 -45 -33 -33 6 -35 27 -10
97 23 60 64 145 71 145 2 0 3 -41 2 -91z m6429 59 c-3 -7 -5 -2 -5 12 0 14 2
19 5 13 2 -7 2 -19 0 -25z m-121 -10 c-13 -66 -49 -189 -53 -184 -3 3 2 33 10
68 9 35 18 82 22 106 4 23 11 42 17 42 6 0 8 -13 4 -32z m-541 -73 c-3 -25
-13 -63 -21 -83 -16 -40 -14 -22 7 71 16 68 24 75 14 12z m215 -17 c-1 -7 -10
-29 -21 -48 -11 -19 -17 -26 -14 -15 4 11 9 32 12 48 5 27 23 39 23 15z
m-4847 -61 c-8 -12 -23 14 -22 38 0 18 1 17 13 -5 8 -14 12 -29 9 -33z m3796
-17 c-6 -29 -17 -67 -25 -84 l-13 -31 -1 32 c0 18 6 50 14 70 8 21 17 47 20
57 13 38 16 7 5 -44z m881 43 c0 -5 -5 -15 -10 -23 -8 -12 -10 -11 -10 8 0 12
5 22 10 22 6 0 10 -3 10 -7z m-23 -65 c-3 -8 -6 -5 -6 6 -1 11 2 17 5 13 3 -3
4 -12 1 -19z m130 -80 c-14 -40 -35 -106 -46 -145 -12 -40 -26 -73 -31 -73
-13 0 -14 -1 15 87 49 148 79 227 82 216 2 -6 -7 -44 -20 -85z m-8847 40 c-1
-14 -24 -48 -33 -48 -3 0 -1 14 4 30 11 30 29 41 29 18z m7062 -31 c20 -5 28
-3 31 10 4 16 6 15 12 -4 7 -22 60 -48 76 -37 5 3 9 -1 9 -8 1 -7 8 -1 16 15
8 15 16 27 17 27 1 0 1 -20 -1 -45 -2 -25 -1 -53 3 -63 6 -15 8 -14 21 8 13
22 14 23 9 3 -3 -12 -1 -40 6 -63 l12 -40 18 37 c19 42 26 31 8 -14 -7 -15
-11 -41 -10 -57 1 -15 -3 -42 -8 -60 -23 -78 -35 -113 -49 -146 -9 -19 -15
-39 -14 -43 2 -5 -2 -6 -8 -2 -5 3 -10 5 -10 3 0 -2 -12 -30 -26 -63 l-25 -60
5 43 c6 41 6 42 -12 24 -10 -10 -22 -27 -26 -38 -6 -12 -10 -15 -13 -6 -5 13
-39 17 -47 4 -2 -4 -24 -7 -48 -7 -28 1 -48 -4 -56 -14 -12 -14 -13 -13 -9 7
3 13 0 22 -7 22 -22 0 -74 30 -80 46 -3 8 -10 12 -16 9 -5 -3 -10 3 -10 14 0
28 -11 52 -21 45 -5 -3 -9 2 -9 10 0 9 4 16 10 16 5 0 2 16 -7 34 -13 29 -19
33 -34 26 -10 -6 -21 -19 -24 -31 -4 -11 -9 -19 -11 -16 -2 2 3 23 11 47 8 23
15 69 15 102 0 60 16 145 30 153 4 2 5 -8 3 -23 -3 -20 4 -12 26 28 17 30 30
50 31 43 0 -7 17 4 38 22 20 19 45 35 54 35 9 0 20 5 23 10 4 6 11 8 16 5 5
-4 17 -2 26 4 10 5 20 6 23 2 3 -4 17 -11 32 -14z m-4585 -19 c-3 -7 -5 -2 -5
12 0 14 2 19 5 13 2 -7 2 -19 0 -25z m3790 10 c-3 -8 -6 -5 -6 6 -1 11 2 17 5
13 3 -3 4 -12 1 -19z m1580 -20 c-3 -7 -5 -2 -5 12 0 14 2 19 5 13 2 -7 2 -19
0 -25z m-7076 -25 c-8 -15 -10 -15 -11 -2 0 17 10 32 18 25 2 -3 -1 -13 -7
-23z m1644 -38 c-22 -60 -30 -53 -9 9 9 26 19 45 22 42 2 -3 -3 -26 -13 -51z
m66 -28 c-28 -62 -77 -147 -85 -147 -3 0 14 37 36 83 22 45 44 92 49 105 5 12
13 22 18 22 6 0 -3 -29 -18 -63z m5319 -7 c-7 -33 -15 -58 -18 -55 -3 2 1 32
8 65 7 33 15 58 18 55 3 -2 -1 -32 -8 -65z m-7975 -16 c-22 -54 -38 -85 -42
-80 -2 2 8 31 23 65 29 67 44 79 19 15z m11119 -19 c-32 -30 -62 -49 -89 -55
-22 -5 -47 -18 -57 -29 -9 -12 -22 -21 -29 -21 -22 0 20 37 67 59 24 12 67 39
96 60 29 22 54 38 56 36 2 -2 -18 -24 -44 -50z m-3265 -9 c-6 -26 -14 -44 -17
-42 -2 3 1 26 8 51 17 59 24 52 9 -9z m-7173 -13 c-11 -11 -19 6 -11 24 8 17
8 17 12 0 3 -10 2 -21 -1 -24z m7106 15 c-7 -7 -12 -8 -12 -2 0 14 12 26 19
19 2 -3 -1 -11 -7 -17z m113 -18 c-4 -17 -9 -30 -11 -27 -2 2 -1 18 2 36 4 17
9 30 11 27 3 -2 2 -19 -2 -36z m-1860 -8 c-15 -16 -16 -15 -4 12 7 15 15 23
17 16 3 -7 -3 -19 -13 -28z m-474 -9 c-12 -20 -14 -14 -5 12 4 9 9 14 11 11 3
-2 0 -13 -6 -23z m-1129 -45 c-7 -7 -12 -8 -12 -2 0 14 12 26 19 19 2 -3 -1
-11 -7 -17z m1099 -32 c-11 -25 -22 -46 -25 -46 -3 0 5 23 16 50 11 28 23 49
25 47 2 -2 -5 -25 -16 -51z m2285 -28 c-8 -40 -18 -93 -21 -118 -13 -99 -30
-159 -41 -147 -3 3 -1 14 4 24 6 10 13 52 17 93 7 85 22 163 38 202 19 45 20
23 3 -54z m401 50 c-3 -7 -5 -2 -5 12 0 14 2 19 5 13 2 -7 2 -19 0 -25z
m-8197 15 c0 -5 -9 -19 -20 -33 -15 -19 -20 -21 -20 -8 0 9 7 24 16 32 17 18
24 20 24 9z m6293 -48 c-8 -25 -17 -45 -20 -45 -4 0 2 25 18 68 16 42 18 22 2
-23z m3257 41 c0 -3 -4 -8 -10 -11 -5 -3 -10 -1 -10 4 0 6 5 11 10 11 6 0 10
-2 10 -4z m1334 -31 c-27 -20 -141 -80 -129 -67 19 20 138 92 143 87 3 -3 -3
-12 -14 -20z m-8349 -41 c-14 -26 -25 -54 -25 -63 0 -9 -8 -25 -17 -36 -14
-18 -15 -18 -9 -2 3 10 6 26 6 35 0 17 55 112 65 112 2 0 -7 -21 -20 -46z
m-882 6 c-6 -24 -23 -37 -23 -18 0 12 18 38 26 38 1 0 0 -9 -3 -20z m6047 -10
c-6 -12 -14 -19 -17 -17 -2 3 1 15 7 27 6 12 14 19 17 17 2 -3 -1 -15 -7 -27z
m-1756 -22 c-8 -50 -57 -184 -62 -170 -5 16 53 202 64 202 2 0 1 -15 -2 -32z
m-5978 1 c3 -6 -3 -21 -15 -32 l-21 -21 0 25 c0 37 20 53 36 28z m5815 -26
c-12 -20 -14 -14 -5 12 4 9 9 14 11 11 3 -2 0 -13 -6 -23z m1640 -88 c-12 -48
-26 -94 -32 -103 -8 -14 -9 -12 -5 8 22 95 49 190 53 186 2 -2 -5 -43 -16 -91z
m1920 -34 c-17 -55 -31 -108 -31 -118 0 -11 -3 -23 -7 -27 -5 -4 -13 -22 -20
-39 -8 -23 -12 -26 -12 -12 -1 26 92 320 97 306 2 -6 -10 -55 -27 -110z
m-4981 89 c0 -5 -2 -10 -4 -10 -3 0 -8 5 -11 10 -3 6 -1 10 4 10 6 0 11 -4 11
-10z m2203 -5 c-3 -9 -8 -14 -10 -11 -3 3 -2 9 2 15 9 16 15 13 8 -4z m-555
-36 c-6 -16 -12 -28 -14 -26 -5 5 13 57 20 57 3 0 0 -14 -6 -31z m692 27 c0
-3 -4 -8 -10 -11 -5 -3 -10 -1 -10 4 0 6 5 11 10 11 6 0 10 -2 10 -4z m225
-26 c-4 -12 -9 -19 -12 -17 -3 3 -2 15 2 27 4 12 9 19 12 17 3 -3 2 -15 -2
-27z m3790 0 c-16 -16 -31 -27 -34 -24 -6 6 45 54 56 54 4 0 -6 -13 -22 -30z
m-4595 -17 c-11 -17 -11 -17 -6 0 3 10 6 24 7 30 0 9 2 9 5 0 3 -7 0 -20 -6
-30z m3380 -33 c-12 -33 -24 -59 -26 -57 -2 2 6 32 17 66 12 34 24 60 26 57 3
-3 -5 -33 -17 -66z m-3550 -12 c-37 -91 -41 -97 -34 -58 8 52 14 70 24 70 5 0
12 15 16 33 4 17 9 27 11 20 2 -6 -6 -35 -17 -65z m70 35 c-11 -17 -11 -17 -6
0 3 10 6 24 7 30 0 9 2 9 5 0 3 -7 0 -20 -6 -30z m220 27 c0 -5 -5 -10 -11
-10 -5 0 -7 5 -4 10 3 6 8 10 11 10 2 0 4 -4 4 -10z m1556 -77 c-10 -26 -18
-8 -9 23 5 21 8 24 11 11 2 -10 1 -25 -2 -34z m-1690 18 c24 20 15 -3 -11 -27
-14 -13 -25 -18 -25 -11 0 8 -3 8 -8 2 -4 -5 -14 -11 -22 -13 -8 -1 -3 8 13
21 15 12 28 29 28 37 1 10 3 9 6 -3 4 -14 8 -16 19 -6z m95 -28 c-24 -45 -27
-37 -6 14 8 20 18 34 21 30 3 -3 -4 -22 -15 -44z m261 25 c-7 -7 -12 -8 -12
-2 0 14 12 26 19 19 2 -3 -1 -11 -7 -17z m-4010 -25 c-6 -15 -16 -41 -22 -57
-6 -16 -13 -26 -17 -23 -3 4 5 31 18 61 24 55 41 70 21 19z m3240 15 c-7 -7
-12 -8 -12 -2 0 14 12 26 19 19 2 -3 -1 -11 -7 -17z m1158 2 c0 -4 -9 -15 -20
-25 -19 -18 -20 -17 -20 2 0 11 2 22 5 25 7 7 35 6 35 -2z m-1285 -52 c-11
-39 -28 -79 -31 -75 -5 5 26 97 33 97 2 0 1 -10 -2 -22z m560 -52 c-10 -31
-21 -56 -26 -56 -8 0 -1 26 21 88 20 54 24 28 5 -32z m1650 5 c-4 -23 -10 -41
-14 -41 -5 0 -4 20 2 45 13 55 22 52 12 -4z m-39 -17 c-4 -14 -11 -22 -16 -19
-5 3 -4 19 2 37 13 36 24 21 14 -18z m129 11 c0 -19 -3 -35 -7 -35 -5 0 -8 -5
-8 -11 0 -5 5 -7 10 -4 14 8 13 -2 -5 -63 -9 -29 -20 -52 -25 -52 -5 0 -2 16
6 35 17 41 20 79 4 55 -8 -12 -10 -10 -10 10 0 20 -2 22 -10 10 -8 -13 -11
-12 -24 5 -21 28 -20 29 19 44 19 7 35 19 35 27 0 8 3 14 8 14 4 0 7 -16 7
-35z m39 -2 c-7 -42 -23 -78 -24 -54 0 17 22 91 27 91 2 0 1 -17 -3 -37z
m-554 -13 c0 -5 -2 -10 -4 -10 -3 0 -8 5 -11 10 -3 6 -1 10 4 10 6 0 11 -4 11
-10z m-1440 -24 c0 -3 -4 -8 -10 -11 -5 -3 -10 -1 -10 4 0 6 5 11 10 11 6 0
10 -2 10 -4z m551 -19 c-10 -9 -11 -8 -5 6 3 10 9 15 12 12 3 -3 0 -11 -7 -18z
m-4320 -44 c-12 -20 -14 -14 -5 12 4 9 9 14 11 11 3 -2 0 -13 -6 -23z m1234
-13 c3 -5 1 -10 -4 -10 -6 0 -11 5 -11 10 0 6 2 10 4 10 3 0 8 -4 11 -10z
m-1160 -50 c-4 -12 -9 -19 -12 -17 -3 3 -2 15 2 27 4 12 9 19 12 17 3 -3 2
-15 -2 -27z m4766 3 c-12 -20 -14 -14 -5 12 4 9 9 14 11 11 3 -2 0 -13 -6 -23z
m-2528 -7 c4 -10 0 -12 -14 -9 -22 6 -26 23 -5 23 8 0 16 -6 19 -14z m5028
-103 c-10 -17 -10 -16 -11 3 0 23 13 41 18 25 2 -6 -1 -18 -7 -28z m-7017 -48
c-14 -49 -39 -98 -30 -60 15 61 30 105 37 105 4 0 1 -20 -7 -45z m1006 15 c8
-5 11 -10 5 -10 -5 0 -17 5 -25 10 -8 5 -10 10 -5 10 6 0 17 -5 25 -10z m952
-42 c-7 -7 -12 -8 -12 -2 0 14 12 26 19 19 2 -3 -1 -11 -7 -17z m1319 -1 c-10
-9 -11 -8 -5 6 3 10 9 15 12 12 3 -3 0 -11 -7 -18z m1970 -4 c-8 -15 -10 -15
-11 -2 0 17 10 32 18 25 2 -3 -1 -13 -7 -23z m-3311 -27 c0 -15 -30 -44 -30
-30 0 5 -5 2 -10 -6 -6 -10 -10 -11 -10 -2 0 21 4 27 20 27 8 1 14 6 13 13 -2
7 2 12 7 12 6 0 10 -6 10 -14z m1460 4 c0 -5 -7 -7 -15 -4 -8 4 -15 8 -15 10
0 2 7 4 15 4 8 0 15 -4 15 -10z m160 -6 c0 -2 -7 -4 -15 -4 -8 0 -15 4 -15 10
0 5 7 7 15 4 8 -4 15 -8 15 -10z m-4520 -28 c0 -8 -5 -18 -11 -22 -14 -8 -33
11 -25 25 10 16 36 13 36 -3z m916 -43 c-8 -15 -15 -22 -16 -15 0 17 20 55 27
49 2 -3 -2 -18 -11 -34z m3065 -7 c-6 -14 -15 -26 -21 -26 -14 0 -13 7 6 36
21 31 28 26 15 -10z m-3921 16 c0 -5 -7 -17 -15 -28 -14 -18 -14 -17 -4 9 12
27 19 34 19 19z m2436 -14 c10 -12 14 -18 8 -15 -16 9 -20 -46 -8 -118 l6 -40
-26 24 c-29 27 -34 68 -14 132 6 22 12 39 13 39 1 0 10 -10 21 -22z m6719 -64
c43 -55 65 -74 87 -74 24 1 23 2 -25 35 -8 6 -18 24 -22 40 -5 24 -4 28 6 18
7 -7 19 -13 26 -13 7 0 34 -13 60 -29 27 -16 60 -31 76 -35 27 -6 27 -8 25
-71 -4 -78 10 -97 79 -105 45 -5 48 -7 51 -37 2 -18 8 -33 14 -33 6 0 5 -7 -3
-16 -12 -14 -10 -19 14 -38 21 -17 27 -30 27 -59 0 -33 4 -39 38 -54 33 -16
38 -23 47 -71 12 -62 42 -91 92 -92 26 0 170 41 231 66 20 9 15 -70 -5 -88
-26 -23 -131 -74 -204 -99 -105 -36 -184 -40 -328 -17 -163 25 -334 25 -367
-1 -13 -10 -21 -21 -18 -24 3 -3 -5 -11 -17 -18 -17 -9 -24 -9 -27 0 -5 16
-37 14 -52 -4 -12 -14 -15 -14 -30 0 -9 8 -19 12 -22 9 -3 -3 -9 -1 -13 5 -3
6 -1 11 5 11 6 0 8 4 5 10 -3 6 1 7 9 4 17 -6 17 -6 21 86 2 48 -21 130 -36
130 -5 0 -10 -6 -10 -12 -2 -20 -20 62 -26 116 -3 33 -8 44 -14 35 -16 -25
-10 9 6 42 18 34 36 108 39 162 1 30 9 44 34 63 18 14 30 30 27 35 -4 5 -2 9
4 9 6 0 14 15 19 32 5 21 16 34 28 36 10 2 26 12 34 22 8 10 22 20 30 22 8 2
21 11 28 20 15 21 31 16 57 -18z m-7580 16 c-3 -5 -16 -10 -28 -9 -21 0 -21 1
-2 9 28 12 37 12 30 0z m915 -8 c0 -17 -38 -53 -44 -43 -4 6 1 19 11 31 18 21
33 26 33 12z m6255 -75 c-16 -71 -44 -132 -45 -98 0 19 53 182 58 177 2 -3 -4
-38 -13 -79z m-6243 21 c-7 -7 -12 -8 -12 -2 0 14 12 26 19 19 2 -3 -1 -11 -7
-17z m1911 -3 c-3 -9 -8 -14 -10 -11 -3 3 -2 9 2 15 9 16 15 13 8 -4z m-503
-5 c0 -5 -4 -10 -10 -10 -5 0 -10 5 -10 10 0 6 5 10 10 10 6 0 10 -4 10 -10z
m-1410 -14 c0 -3 -4 -8 -10 -11 -5 -3 -10 -1 -10 4 0 6 5 11 10 11 6 0 10 -2
10 -4z m2290 -20 c0 -3 -4 -8 -10 -11 -5 -3 -10 -1 -10 4 0 6 5 11 10 11 6 0
10 -2 10 -4z m905 -80 c28 -25 46 -45 40 -45 -5 0 -37 25 -70 55 -33 31 -51
51 -40 46 11 -6 43 -31 70 -56z m2262 22 c-3 -8 -6 -5 -6 6 -1 11 2 17 5 13 3
-3 4 -12 1 -19z m-5499 -13 c-3 -3 -9 2 -12 12 -6 14 -5 15 5 6 7 -7 10 -15 7
-18z m-1338 -5 c0 -5 -5 -10 -11 -10 -5 0 -7 5 -4 10 3 6 8 10 11 10 2 0 4 -4
4 -10z m3455 -70 c-20 -40 -39 -70 -41 -67 -3 3 12 37 32 76 49 92 56 85 9 -9z
m-2159 27 l15 -32 -25 28 c-15 15 -26 33 -26 38 0 18 20 -1 36 -34z m5525 -8
c-6 -16 -10 -18 -10 -7 -1 22 12 55 16 42 2 -6 -1 -22 -6 -35z m-3856 -21 l50
-53 -55 50 c-30 28 -57 51 -59 53 -2 1 0 2 5 2 5 0 32 -24 59 -52z m-1591 26
c3 -8 2 -12 -4 -9 -6 3 -10 10 -10 16 0 14 7 11 14 -7z m5297 -25 c-6 -16 -10
-18 -10 -7 -1 22 12 55 16 42 2 -6 -1 -22 -6 -35z m-3776 11 c-3 -5 -10 -10
-16 -10 -5 0 -9 5 -9 10 0 6 7 10 16 10 8 0 12 -4 9 -10z m-1606 -49 c6 -19 8
-37 5 -40 -11 -11 -34 32 -34 63 0 35 12 26 29 -23z m-1719 9 c0 -5 -4 -10
-10 -10 -5 0 -10 5 -10 10 0 6 5 10 10 10 6 0 10 -4 10 -10z m-260 -34 c0 -3
-4 -8 -10 -11 -5 -3 -10 -1 -10 4 0 6 5 11 10 11 6 0 10 -2 10 -4z m838 -9
c-24 -24 -56 -37 -92 -37 -40 0 -43 5 -19 32 12 13 30 18 70 18 46 0 52 -2 41
-13z m1345 -37 c-6 -7 -23 23 -23 40 0 8 6 4 13 -10 8 -14 12 -27 10 -30z
m-1733 -44 c0 -24 -8 -16 -40 39 l-23 40 31 -29 c18 -17 32 -39 32 -50z m-322
-3 c-18 -18 -36 -33 -41 -33 -5 0 -45 -25 -89 -56 -78 -55 -112 -66 -70 -21
11 12 21 26 21 31 0 6 8 11 17 12 16 3 23 7 88 68 67 63 79 69 94 49 10 -14 7
-22 -20 -50z m392 17 c0 -3 -5 -12 -10 -20 -9 -13 -14 -11 -35 13 -32 36 -23
53 16 30 16 -10 29 -20 29 -23z m3300 -75 c-6 -15 -13 -26 -16 -23 -2 3 0 18
6 33 6 15 13 26 16 23 2 -3 0 -18 -6 -33z m1872 -7 c47 -28 67 -44 56 -46 -20
-4 -138 64 -138 79 0 13 2 13 82 -33z m-5444 10 c16 -16 15 -28 -3 -28 -8 0
-15 -4 -15 -10 0 -5 -7 -7 -15 -4 -9 4 -15 0 -16 -7 -3 -29 -4 -35 -19 -56 -8
-13 -21 -23 -29 -23 -8 0 -22 -7 -31 -15 -15 -14 -19 -13 -34 4 -15 17 -16 22
-3 52 19 45 46 68 99 84 55 17 52 17 66 3z m2352 -3 c7 -9 8 -15 2 -15 -5 0
-12 7 -16 15 -3 8 -4 15 -2 15 2 0 9 -7 16 -15z m59 -19 c18 -22 51 -27 51 -8
0 12 5 10 25 -8 14 -13 24 -33 24 -44 -2 -19 -2 -19 -6 2 -2 12 -8 22 -13 22
-5 0 -7 -7 -4 -15 7 -18 -7 -20 -24 -3 -6 6 -23 12 -37 14 -31 3 -55 21 -55
40 0 18 24 18 39 0z m1100 -116 c6 0 11 -5 11 -10 0 -20 -35 7 -85 65 -27 31
-49 57 -50 59 0 1 25 -24 56 -56 31 -32 62 -58 68 -58z m4622 93 c-8 -15 -10
-15 -11 -2 0 17 10 32 18 25 2 -3 -1 -13 -7 -23z m-4276 -125 c-20 -51 -41
-97 -46 -102 -21 -22 -8 15 57 173 8 19 17 31 20 28 4 -3 -10 -48 -31 -99z
m-4518 25 c-3 -10 -5 -4 -5 12 0 17 2 24 5 18 2 -7 2 -21 0 -30z m3513 -24
c-14 -4 -20 -8 -15 -8 6 -1 30 -19 54 -41 30 -27 39 -40 27 -40 -26 0 -98 72
-91 91 4 12 13 15 28 11 21 -6 21 -6 -3 -13z m-2831 -19 c3 -25 3 -25 -18 -6
-26 23 -27 39 -3 34 9 -2 19 -14 21 -28z m1386 20 c-3 -5 -12 -10 -18 -10 -7
0 -6 4 3 10 19 12 23 12 15 0z m2081 -42 c-18 -26 -22 -17 -5 14 6 11 13 17
16 15 3 -3 -2 -16 -11 -29z m874 12 c0 -11 -14 -34 -30 -52 l-31 -33 16 39
c14 37 33 66 41 66 2 0 4 -9 4 -20z m-1053 -22 c-8 -24 -12 -28 -15 -15 -2 10
2 24 8 32 19 22 20 18 7 -17z m4393 13 c0 -10 -7 -24 -15 -31 -12 -10 -15 -10
-15 3 0 23 11 47 21 47 5 0 9 -8 9 -19z m-305 -152 c-25 -79 -45 -152 -45
-161 0 -10 -5 -18 -11 -18 -6 0 -8 9 -3 23 29 91 74 241 74 248 0 15 21 62 25
57 3 -3 -15 -70 -40 -149z m-7615 111 c0 -23 -22 -26 -39 -6 -10 12 -8 15 11
19 13 2 24 5 26 6 1 0 2 -8 2 -19z m6675 -10 c-4 -12 -9 -19 -12 -17 -3 3 -2
15 2 27 4 12 9 19 12 17 3 -3 2 -15 -2 -27z m-2941 -38 c-15 -30 -34 -51 -34
-36 0 11 42 75 46 71 2 -2 -3 -18 -12 -35z m-3945 -58 c-6 -33 -15 -64 -20
-71 -6 -6 -9 -28 -8 -50 2 -21 -3 -47 -9 -59 -6 -11 -14 -44 -18 -72 -4 -29
-10 -55 -14 -57 -4 -3 -5 -24 -3 -49 3 -25 1 -46 -5 -50 -6 -4 -8 -21 -5 -41
3 -18 3 -46 -1 -60 -24 -95 -44 149 -22 270 20 111 41 198 55 223 6 11 11 30
11 41 0 12 4 21 9 21 5 0 12 10 15 23 6 19 8 20 16 6 6 -11 6 -37 -1 -75z
m8142 35 l-10 -24 0 26 c-1 14 2 29 6 33 12 12 14 -9 4 -35z m289 11 c0 -5 -2
-10 -4 -10 -3 0 -8 5 -11 10 -3 6 -1 10 4 10 6 0 11 -4 11 -10z m-9956 -54
c-3 -9 -10 -16 -15 -16 -6 0 -5 9 1 21 13 24 24 20 14 -5z m9726 10 c0 -7 -7
-19 -15 -26 -16 -13 -20 -3 -9 24 8 20 24 21 24 2z m-4450 -21 c13 -14 21 -25
18 -25 -2 0 -15 11 -28 25 -13 14 -21 25 -18 25 2 0 15 -11 28 -25z m-5690
-137 c-34 -79 -66 -147 -71 -152 -20 -21 -8 20 30 103 22 47 51 113 65 145 15
33 29 56 32 53 4 -3 -22 -70 -56 -149z m10520 136 c0 -8 -13 -17 -29 -20 -16
-3 -33 -16 -39 -28 -12 -27 -130 -53 -163 -36 -29 16 -15 29 39 36 26 3 72 18
102 33 65 31 90 35 90 15z m50 -16 l-1 -33 -19 24 c-25 30 -25 41 0 41 16 0
20 -7 20 -32z m-5173 6 c2 -5 -3 -19 -11 -29 -21 -28 -43 -7 -26 25 11 21 31
23 37 4z m4645 -63 c-13 -36 -4 -38 61 -20 43 12 77 4 77 -17 0 -10 -13 -14
-47 -15 -49 -1 -68 -3 -115 -15 -30 -7 -39 9 -14 23 7 4 19 25 26 46 6 21 14
36 17 33 3 -3 1 -19 -5 -35z m-8912 24 c0 -2 -10 -9 -22 -15 -22 -11 -22 -10
-4 4 21 17 26 19 26 11z m8736 -41 c-4 -14 -9 -24 -12 -21 -3 2 -2 17 2 31 3
15 9 25 11 22 3 -3 2 -17 -1 -32z m373 33 c-2 -1 -12 -9 -22 -16 -15 -12 -17
-12 -11 3 3 9 13 16 22 16 8 0 13 -1 11 -3z m-1297 -37 c48 -25 65 -29 114
-26 63 5 112 -13 149 -54 l20 -22 -35 2 c-19 1 -39 1 -45 0 -26 -6 -55 6 -159
62 -119 65 -124 68 -110 68 5 0 35 -13 66 -30z m-8622 -15 c-6 -15 -13 -25
-16 -23 -2 3 1 17 7 32 16 34 23 27 9 -9z m583 10 c-3 -9 -8 -14 -10 -11 -3 3
-2 9 2 15 9 16 15 13 8 -4z m-827 -111 c-24 -107 -41 -164 -50 -164 -2 0 2 26
10 58 7 31 21 89 30 127 19 87 23 99 30 93 3 -3 -6 -55 -20 -114z m9184 66
c-6 -23 -9 -48 -6 -55 2 -7 -4 -15 -15 -18 -20 -5 -36 8 -20 17 5 4 17 29 26
57 20 60 31 59 15 -1z m4350 41 c0 -12 -20 -25 -27 -18 -7 7 6 27 18 27 5 0 9
-4 9 -9z m510 -23 c0 -7 -5 -20 -10 -28 -8 -12 -10 -9 -10 13 0 15 5 27 10 27
6 0 10 -6 10 -12z m-4153 -5 c-11 -10 -57 -13 -57 -2 0 5 14 9 32 9 17 0 28
-3 25 -7z m-177 -13 c0 -5 -5 -10 -11 -10 -5 0 -7 5 -4 10 3 6 8 10 11 10 2 0
4 -4 4 -10z m-3297 -50 c-3 -11 -9 -20 -15 -20 -5 0 -4 9 2 20 6 11 12 20 14
20 2 0 2 -9 -1 -20z m2977 -1 c0 -14 -16 -11 -29 5 -10 12 -8 13 8 9 12 -3 21
-9 21 -14z m5296 -6 c-10 -10 -19 5 -10 18 6 11 8 11 12 0 2 -7 1 -15 -2 -18z
m-5381 7 c3 -5 1 -10 -4 -10 -6 0 -11 5 -11 10 0 6 2 10 4 10 3 0 8 -4 11 -10z
m-8217 -77 c-35 -51 -43 -55 -24 -10 36 84 40 90 46 71 4 -11 -4 -34 -22 -61z
m12492 45 c0 -6 -7 -5 -15 2 -8 7 -15 17 -15 22 0 6 7 5 15 -2 8 -7 15 -17 15
-22z m-6661 -18 c-6 -16 -15 -30 -19 -30 -5 0 -4 14 1 30 6 17 15 30 19 30 5
0 4 -13 -1 -30z m-509 10 c0 -5 -5 -10 -11 -10 -5 0 -7 5 -4 10 3 6 8 10 11
10 2 0 4 -4 4 -10z m-5350 -9 c0 -5 -7 -11 -14 -14 -10 -4 -13 -1 -9 9 6 15
23 19 23 5z m13190 -11 c0 -5 -2 -10 -4 -10 -3 0 -8 5 -11 10 -3 6 -1 10 4 10
6 0 11 -4 11 -10z m-705 -30 c3 -5 1 -10 -4 -10 -6 0 -11 5 -11 10 0 6 2 10 4
10 3 0 8 -4 11 -10z m-12815 -40 c-16 -31 -23 -18 -8 15 7 15 14 23 16 17 2
-6 -2 -21 -8 -32z m12950 36 c0 -3 -4 -8 -10 -11 -5 -3 -10 -1 -10 4 0 6 5 11
10 11 6 0 10 -2 10 -4z m-5674 -43 c-10 -10 -19 5 -10 18 6 11 8 11 12 0 2 -7
1 -15 -2 -18z m5890 -41 c-15 -15 -15 -15 -4 10 7 15 15 23 17 17 2 -6 -4 -18
-13 -27z m-398 -47 c17 -61 24 -101 17 -94 -3 4 -12 29 -19 55 -7 27 -16 60
-21 74 -4 16 -4 21 2 15 5 -5 15 -28 21 -50z m-12684 -24 c-9 -27 -21 -48 -25
-45 -4 2 2 27 13 54 27 64 36 57 12 -9z m148 34 c3 -13 2 -22 -2 -20 -4 3 -10
-10 -14 -28 -13 -68 -70 -261 -73 -250 -2 6 8 57 22 113 14 56 25 110 24 119
-2 15 27 91 35 91 2 0 6 -11 8 -25z m-972 7 c0 -5 -7 -17 -16 -28 -14 -17 -15
-17 -10 -1 3 10 6 23 6 28 0 5 5 9 10 9 6 0 10 -4 10 -8z m14619 -41 c-7 -23
-14 -39 -16 -37 -3 2 1 23 8 45 7 23 14 39 16 37 3 -2 -1 -23 -8 -45z m-14549
19 c0 -17 -41 -92 -47 -87 -7 8 28 97 38 97 5 0 9 -5 9 -10z m5377 -72 c-2
-13 -4 -5 -4 17 -1 22 1 32 4 23 2 -10 2 -28 0 -40z m9103 5 c-11 -17 -11 -17
-6 0 3 10 6 24 7 30 0 9 2 9 5 0 3 -7 0 -20 -6 -30z m-13669 -91 c-23 -105
-59 -226 -60 -202 0 8 8 53 19 100 10 46 17 86 16 88 -2 1 -11 -16 -20 -39 -9
-23 -19 -40 -21 -37 -5 4 26 91 50 143 7 17 17 39 21 50 4 13 8 15 11 7 3 -7
-5 -56 -16 -110z m499 97 c-7 -11 -14 -18 -17 -15 -3 3 0 12 7 21 18 21 23 19
10 -6z m12775 -54 c-23 -86 -30 -78 -9 9 10 36 19 64 22 61 3 -2 -3 -34 -13
-70z m-12807 42 c-1 -13 -7 -24 -14 -24 -9 0 -9 6 -1 24 5 13 12 23 13 23 2 0
3 -10 2 -23z m4052 -57 c-3 -14 -14 -26 -24 -28 -14 -3 -16 1 -10 25 4 15 11
37 17 48 10 19 10 19 17 0 4 -11 4 -31 0 -45z m8350 26 c0 -8 -4 -18 -10 -21
-5 -3 -10 3 -10 14 0 12 5 21 10 21 6 0 10 -6 10 -14z m-12960 -157 c-12 -62
-28 -127 -36 -143 l-14 -31 5 30 c24 141 47 261 52 269 15 24 13 -19 -7 -125z
m13590 112 c0 -20 -20 -61 -30 -61 -5 0 -9 16 -7 35 1 26 7 35 20 35 9 0 17
-4 17 -9z m204 -63 c-9 -29 -20 -57 -24 -62 -5 -5 -2 13 6 40 19 64 22 74 28
74 3 0 -2 -24 -10 -52z m-5859 -23 c17 -6 55 -18 85 -25 47 -11 51 -14 31 -21
-13 -5 -30 -5 -40 1 -15 8 -21 3 -36 -31 -25 -56 -37 -58 -29 -7 l6 43 -22
-30 -22 -30 5 47 c3 32 1 45 -7 42 -6 -2 -29 5 -51 16 l-40 21 45 -7 c25 -4
59 -12 75 -19z m-135 -46 c-18 -42 -25 -28 -9 18 7 21 14 32 17 25 2 -7 -2
-26 -8 -43z m-5182 21 c-7 -10 -14 -17 -17 -15 -4 4 18 35 25 35 2 0 -1 -9 -8
-20z m10432 1 c0 -17 -12 -41 -21 -41 -10 0 -12 33 -2 43 9 10 23 9 23 -2z
m-5800 -30 c-5 -11 -15 -23 -21 -27 -6 -3 -3 5 6 20 20 30 30 35 15 7z m895 9
c-3 -5 -10 -10 -16 -10 -5 0 -9 5 -9 10 0 6 7 10 16 10 8 0 12 -4 9 -10z
m-5590 -55 c-15 -19 -30 -33 -32 -31 -3 3 7 21 22 41 15 19 30 33 32 31 3 -3
-7 -21 -22 -41z m5656 8 c-8 -15 -10 -15 -11 -2 0 17 10 32 18 25 2 -3 -1 -13
-7 -23z m1729 -3 c97 -20 190 -93 190 -148 0 -30 14 -35 35 -12 21 23 35 26
35 7 0 -21 -50 -109 -94 -167 -24 -30 -48 -64 -54 -75 -11 -19 -11 -18 -12 7
0 14 -3 33 -6 42 -5 14 -10 13 -35 -5 -22 -15 -29 -17 -29 -6 0 17 -44 42 -59
33 -6 -4 -11 -1 -11 6 0 9 -3 9 -10 -2 -8 -12 -10 -9 -10 12 0 15 -4 30 -10
33 -5 3 -10 2 -10 -3 0 -5 -11 -14 -25 -20 l-25 -12 15 36 c15 36 12 60 -6 49
-5 -4 -9 3 -9 13 0 11 -7 25 -15 32 -12 10 -15 3 -21 -42 -7 -48 -8 -50 -15
-24 -5 18 -3 43 5 66 11 31 11 42 0 61 -7 13 -13 34 -14 46 0 30 -20 40 -21
11 0 -13 -5 -32 -10 -43 -6 -14 -7 -2 -3 38 5 56 5 57 -20 57 -37 0 -32 18 7
23 52 6 178 -1 237 -13z m-10117 -10 c-6 -24 -23 -37 -23 -18 0 12 18 38 26
38 1 0 0 -9 -3 -20z m1185 -18 c2 -11 -2 -31 -9 -43 -10 -19 -13 -20 -20 -7
-12 21 0 80 15 75 6 -2 12 -13 14 -25z m7752 12 c0 -2 -9 -8 -19 -13 -14 -8
-22 -7 -30 3 -8 10 -4 13 19 13 17 0 30 -2 30 -3z m891 -30 c-5 -16 -10 -21
-10 -12 -1 18 10 51 15 45 2 -1 -1 -16 -5 -33z m-721 16 c0 -5 -8 -10 -17 -10
-15 0 -16 2 -3 10 19 12 20 12 20 0z m300 1 c-40 -8 -128 -6 -137 3 -3 3 34 5
83 4 60 -1 78 -3 54 -7z m73 2 c-7 -2 -19 -2 -25 0 -7 3 -2 5 12 5 14 0 19 -2
13 -5z m381 -57 c-3 -21 -8 -35 -11 -32 -2 2 -1 20 3 40 3 21 8 35 11 32 2 -2
1 -20 -3 -40z m-9516 -18 c-22 -91 -28 -105 -22 -53 7 66 14 95 24 95 4 0 3
-19 -2 -42z m9469 0 c-3 -8 -6 -5 -6 6 -1 11 2 17 5 13 3 -3 4 -12 1 -19z
m-2985 -75 c-14 -29 -28 -51 -30 -48 -2 2 4 28 13 57 27 88 26 85 35 63 5 -13
-1 -37 -18 -72z m195 40 c-3 -10 -5 -4 -5 12 0 17 2 24 5 18 2 -7 2 -21 0 -30z
m6933 23 c0 -2 -3 -11 -6 -20 -9 -23 -24 -20 -24 4 0 11 7 20 15 20 8 0 15 -2
15 -4z m-8300 -11 c0 -12 -32 -67 -36 -63 -9 10 9 68 22 68 8 0 14 -2 14 -5z
m-5697 -30 c-3 -9 -8 -14 -10 -11 -3 3 -2 9 2 15 9 16 15 13 8 -4z m9266 -71
c-13 -56 -28 -88 -36 -80 -3 2 5 34 18 70 27 75 35 80 18 10z m-8748 5 l-9
-34 -1 31 c-1 17 2 34 6 37 12 13 14 -1 4 -34z m4892 19 c-6 -7 -15 -27 -21
-45 -12 -36 -6 -44 45 -61 32 -11 32 -11 59 44 14 30 30 54 35 54 12 0 12 -1
-17 -64 -24 -53 -25 -84 -2 -70 6 4 8 3 5 -3 -4 -6 11 -28 33 -50 21 -22 45
-55 52 -72 l13 -32 29 78 c37 99 45 81 11 -25 -21 -65 -24 -84 -15 -108 7 -18
14 -24 18 -17 4 7 9 -13 10 -43 1 -31 7 -64 12 -73 6 -12 5 -24 -5 -38 -14
-20 -13 -21 22 -19 20 0 38 -4 40 -10 5 -16 -28 -27 -41 -14 -13 13 -29 13
-21 0 3 -5 0 -10 -7 -10 -9 0 -9 -3 2 -10 13 -8 12 -10 -3 -10 -11 0 -15 -5
-11 -11 3 -6 -3 -24 -15 -40 -12 -16 -19 -34 -16 -39 3 -6 2 -10 -2 -10 -5 0
-15 -17 -22 -37 -23 -66 -51 -103 -76 -103 -27 0 -42 -16 -23 -23 11 -4 11 -8
0 -23 -6 -11 -23 -43 -37 -73 -29 -63 -42 -64 -20 -1 22 63 20 72 -17 69 -18
-2 -39 -7 -45 -12 -7 -5 -20 -6 -29 -3 -9 4 -23 1 -30 -5 -12 -10 -13 -8 -8 6
6 15 5 16 -15 3 -20 -12 -24 -10 -42 11 -17 21 -22 22 -29 10 -5 -7 -7 -22 -4
-31 4 -13 1 -16 -10 -12 -9 3 -16 12 -16 19 0 7 -3 21 -6 29 -5 12 -2 15 10
10 9 -3 16 -1 16 5 0 6 -3 11 -7 11 -16 0 -119 107 -138 143 -23 43 -28 45
-49 15 -23 -33 -31 -14 -12 32 9 22 11 40 6 40 -6 0 -10 8 -11 18 0 13 -2 12
-9 -5 -15 -36 -34 -29 -26 10 3 18 2 26 -2 19 -5 -7 -9 25 -9 76 -1 48 -8 111
-16 139 -9 28 -13 54 -10 57 4 3 2 6 -3 6 -10 0 -16 79 -9 125 4 24 10 31 31
33 17 1 24 -2 21 -11 -2 -6 -11 -11 -19 -11 -13 1 -13 -4 -5 -27 6 -15 15 -26
19 -23 4 3 13 2 19 -2 8 -5 8 -9 -1 -14 -7 -5 -8 -10 -2 -13 5 -4 22 23 37 59
31 73 45 80 21 10 -9 -26 -16 -48 -16 -51 0 -2 18 12 39 32 22 19 43 33 47 31
3 -1 10 7 15 20 9 23 29 30 29 10 0 -9 3 -8 10 2 9 15 13 16 48 19 11 0 24 11
30 24 6 12 11 16 11 10 1 -17 46 -16 80 2 16 8 38 30 49 50 12 19 24 35 28 35
3 0 2 -6 -3 -12z m8651 -35 c-4 -21 -10 -45 -15 -53 -13 -24 -11 34 3 65 16
35 20 31 12 -12z m-13707 5 c-3 -8 -6 -5 -6 6 -1 11 2 17 5 13 3 -3 4 -12 1
-19z m5757 -3 c-9 -14 -18 -25 -21 -25 -5 0 5 18 20 38 17 22 18 13 1 -13z
m137 -22 c-12 -20 -14 -14 -5 12 4 9 9 14 11 11 3 -2 0 -13 -6 -23z m-5744
-45 c-3 -7 -5 -2 -5 12 0 14 2 19 5 13 2 -7 2 -19 0 -25z m5145 0 c-8 -8 -9
-4 -5 13 4 13 8 18 11 10 2 -7 -1 -18 -6 -23z m8414 -19 c-18 -41 -21 -26 -4
22 6 18 13 29 15 23 2 -6 -3 -26 -11 -45z m-9111 22 c3 -5 1 -12 -5 -16 -5 -3
-10 1 -10 9 0 18 6 21 15 7z m-4618 -23 c-3 -8 -6 -5 -6 6 -1 11 2 17 5 13 3
-3 4 -12 1 -19z m13784 -1 c-10 -9 -11 -8 -5 6 3 10 9 15 12 12 3 -3 0 -11 -7
-18z m-4611 -17 c-6 -11 -21 -60 -33 -108 -17 -65 -27 -88 -41 -90 -16 -3 -16
-2 -3 20 8 12 27 62 43 111 16 48 32 87 37 87 4 0 3 -9 -3 -20z m150 5 c0 -8
-4 -15 -10 -15 -5 0 -7 7 -4 15 4 8 8 15 10 15 2 0 4 -7 4 -15z m-8420 -86
c-24 -95 -40 -122 -40 -68 0 60 41 171 57 155 2 -2 -6 -41 -17 -87z m-918 39
c-6 -6 -7 0 -4 19 5 21 7 23 10 9 2 -10 0 -22 -6 -28z m6197 -14 c-6 -21 -15
-43 -20 -48 -7 -8 2 40 17 83 10 31 13 2 3 -35z m2740 -10 c-14 -56 -38 -115
-39 -96 0 20 41 154 47 149 2 -3 -2 -26 -8 -53z m65 12 c-3 -15 -8 -25 -11
-23 -2 3 -1 17 3 31 3 15 8 25 11 23 2 -3 1 -17 -3 -31z m-9577 -28 c-3 -8 -6
-5 -6 6 -1 11 2 17 5 13 3 -3 4 -12 1 -19z m6732 -77 c-6 -18 -13 -30 -15 -28
-2 2 1 18 7 36 6 18 13 30 15 28 2 -2 -1 -18 -7 -36z m-6354 -33 c-28 -101
-59 -188 -65 -188 -5 0 3 37 17 83 26 84 43 127 50 127 3 0 1 -10 -2 -22z
m9235 17 c0 -3 -34 -56 -76 -118 -42 -61 -89 -140 -104 -174 -16 -35 -32 -63
-35 -63 -4 0 -4 8 -1 18 6 18 3 14 -40 -43 -8 -11 -3 0 11 25 14 25 36 64 48
88 11 23 25 42 30 42 4 0 5 5 1 12 -4 6 -3 8 2 5 5 -3 41 44 79 103 61 95 85
125 85 105z m-8750 -46 c0 -11 -4 -18 -10 -14 -5 3 -7 12 -3 20 7 21 13 19 13
-6z m5824 -57 c-15 -40 -29 -71 -31 -69 -2 3 8 37 23 76 15 39 28 70 30 68 2
-2 -8 -36 -22 -75z m3020 27 c-19 -50 -40 -78 -29 -39 14 46 35 93 41 88 2 -3
-3 -25 -12 -49z m-8753 -77 c-22 -44 -46 -84 -52 -88 -9 -5 -10 -2 -5 12 5 10
9 24 9 31 0 7 4 10 8 7 4 -2 22 25 40 61 17 36 34 64 36 61 2 -2 -14 -40 -36
-84z m4067 53 c-1 -13 -6 -21 -10 -17 -5 5 -6 16 -2 25 9 24 14 21 12 -8z
m4615 -20 c-3 -9 -8 -14 -10 -11 -3 3 -2 9 2 15 9 16 15 13 8 -4z m142 -25
c-9 -16 -18 -30 -21 -30 -2 0 2 14 11 30 9 17 18 30 21 30 2 0 -2 -13 -11 -30z
m-3448 -42 c-31 -79 -41 -98 -49 -98 -5 0 -6 10 -2 23 15 51 34 87 45 87 6 0
9 -6 6 -12z m-5794 -18 c-3 -11 -10 -23 -16 -27 -5 -3 -8 -2 -5 3 3 5 8 17 11
27 9 24 16 22 10 -3z m442 -27 c-9 -21 -21 -42 -27 -48 -12 -11 -12 -11 15 48
10 20 20 37 22 37 3 0 -2 -17 -10 -37z m3322 -5 c-3 -7 -5 -2 -5 12 0 14 2 19
5 13 2 -7 2 -19 0 -25z m5428 2 c-9 -16 -18 -30 -21 -30 -2 0 2 14 11 30 9 17
18 30 21 30 2 0 -2 -13 -11 -30z m-3675 -71 c-10 -34 -17 -45 -25 -38 -6 7 18
69 26 69 4 0 4 -14 -1 -31z m-4685 -81 c-12 -171 -18 -214 -28 -211 -3 1 -20
-12 -38 -28 -24 -23 -34 -27 -40 -17 -5 8 -3 17 4 23 17 13 59 123 59 153 0
12 3 22 7 22 10 0 33 108 26 120 -6 10 2 30 12 30 3 0 2 -42 -2 -92z m8305 52
c-11 -22 -23 -40 -25 -40 -3 0 4 18 15 40 11 22 23 40 25 40 3 0 -4 -18 -15
-40z m-8430 -17 c-7 -21 -17 -42 -22 -48 -7 -7 -9 -5 -5 5 3 8 11 32 18 53 7
20 14 35 17 33 2 -3 -1 -22 -8 -43z m-234 11 c-4 -9 -9 -15 -11 -12 -3 3 -3
13 1 22 4 9 9 15 11 12 3 -3 3 -13 -1 -22z m4913 -64 c-13 -44 -35 -56 -25
-14 4 15 10 40 13 56 5 24 8 27 15 14 5 -10 4 -31 -3 -56z m45 13 c-3 -16 -19
-62 -34 -103 -15 -41 -31 -91 -35 -110 -8 -39 -24 -74 -31 -68 -2 3 8 38 22
79 14 41 27 92 28 114 2 22 11 57 19 78 19 43 40 51 31 10z m2966 -73 c-12
-39 -25 -69 -27 -66 -2 2 6 36 18 75 11 40 24 70 26 67 3 -3 -5 -37 -17 -76z
m377 25 c-6 -19 -12 -33 -14 -32 -6 7 9 67 17 67 5 0 3 -16 -3 -35z m-3413
-26 c-3 -6 -17 -49 -29 -94 -23 -83 -44 -133 -45 -106 0 25 63 211 72 211 5 0
6 -5 2 -11z m3678 -31 c-7 -7 -12 -8 -12 -2 0 14 12 26 19 19 2 -3 -1 -11 -7
-17z m2915 -20 c-3 -8 -6 -5 -6 6 -1 11 2 17 5 13 3 -3 4 -12 1 -19z m-6677
-39 c0 -16 -41 -81 -47 -75 -3 2 0 13 6 24 6 12 11 30 11 41 0 12 7 21 15 21
8 0 15 -5 15 -11z m3071 -56 c-12 -20 -14 -14 -5 12 4 9 9 14 11 11 3 -2 0
-13 -6 -23z m-7501 -58 c-7 -8 -18 -15 -24 -15 -6 0 -2 7 8 15 25 19 32 19 16
0z m4247 -87 c-3 -7 -14 -37 -23 -65 -10 -29 -22 -53 -27 -53 -7 0 -4 19 10
56 2 7 -1 15 -7 19 -8 5 -4 15 11 31 24 26 44 32 36 12z m2753 -28 c-6 -11
-13 -20 -16 -20 -2 0 0 9 6 20 6 11 13 20 16 20 2 0 0 -9 -6 -20z m-92 -239
c-69 -211 -67 -205 -73 -199 -5 5 33 146 71 261 14 43 23 81 20 84 -8 9 11 30
27 30 10 0 -3 -50 -45 -176z m-6981 123 c-12 -13 -37 6 -37 28 l0 22 22 -21
c12 -13 19 -25 15 -29z m7084 -57 c-10 -9 -11 -8 -5 6 3 10 9 15 12 12 3 -3 0
-11 -7 -18z m-7106 3 c-3 -5 -10 -10 -16 -10 -5 0 -9 5 -9 10 0 6 7 10 16 10
8 0 12 -4 9 -10z m11066 -43 c-7 -7 -9 -1 -6 19 5 40 7 43 12 15 3 -13 0 -28
-6 -34z m125 7 c-8 -21 -15 -34 -15 -28 -1 15 20 76 25 71 2 -2 -2 -21 -10
-43z m-7176 -23 c0 -6 -4 -13 -10 -16 -5 -3 -10 1 -10 9 0 9 5 16 10 16 6 0
10 -4 10 -9z m-4055 -21 c3 -5 1 -10 -4 -10 -6 0 -11 5 -11 10 0 6 2 10 4 10
3 0 8 -4 11 -10z m-1690 -53 c-8 -21 -17 -37 -19 -37 -6 0 10 55 19 70 15 24
15 1 0 -33z m1647 -29 c-7 -7 -12 -8 -12 -2 0 14 12 26 19 19 2 -3 -1 -11 -7
-17z m723 -37 c-2 -11 0 -23 5 -26 25 -16 -19 -130 -92 -238 -41 -60 -41 -62
-51 -254 -2 -40 -11 -42 -30 -5 -14 30 -12 68 16 211 8 41 12 91 10 111 -3 22
-1 40 6 44 6 4 11 18 11 32 0 28 46 114 61 114 5 0 9 7 9 15 0 8 10 25 22 37
l21 21 8 -21 c4 -12 6 -30 4 -41z m10565 19 c-16 -40 -23 -33 -9 9 6 18 14 30
17 27 2 -3 -1 -19 -8 -36z m-7350 -16 c0 -8 -4 -12 -10 -9 -5 3 -10 10 -10 16
0 5 5 9 10 9 6 0 10 -7 10 -16z m1640 -141 c-23 -70 -47 -132 -53 -138 -7 -7
-8 -5 -5 5 3 8 24 73 48 143 23 70 44 126 47 123 3 -3 -14 -62 -37 -133z
m2486 80 c-8 -15 -15 -22 -16 -15 0 17 20 55 27 49 2 -3 -2 -18 -11 -34z
m-6226 -7 c0 -2 -7 -7 -16 -10 -8 -3 -12 -2 -9 4 6 10 25 14 25 6z m2243 -31
c-7 -21 -13 -19 -13 6 0 11 4 18 10 14 5 -3 7 -12 3 -20z m917 -81 c-29 -87
-34 -77 -7 15 11 41 23 69 25 63 2 -7 -6 -41 -18 -78z m-5134 41 c1 -14 -2
-25 -6 -25 -5 0 -16 -3 -24 -6 -14 -6 -14 -2 1 25 22 37 28 39 29 6z m-1043
-10 c-3 -9 -8 -14 -10 -11 -3 3 -2 9 2 15 9 16 15 13 8 -4z m6121 -10 c-4 -8
-8 -15 -10 -15 -2 0 -4 7 -4 15 0 8 4 15 10 15 5 0 7 -7 4 -15z m6526 3 c0 -7
-5 -20 -10 -28 -8 -12 -10 -9 -10 13 0 15 5 27 10 27 6 0 10 -6 10 -12z
m-12929 -69 c-6 -16 -10 -18 -10 -7 -1 22 12 55 16 42 2 -6 -1 -22 -6 -35z
m6464 -28 c3 -5 1 -12 -5 -16 -5 -3 -10 1 -10 9 0 18 6 21 15 7z m-50 -61 c-9
-28 -19 -50 -21 -48 -2 2 4 27 13 56 9 28 19 50 21 47 2 -2 -4 -27 -13 -55z
m-74 -22 c-15 -31 -20 -35 -16 -16 8 42 27 84 32 71 2 -6 -5 -31 -16 -55z
m6310 -135 c-12 -20 -14 -14 -5 12 4 9 9 14 11 11 3 -2 0 -13 -6 -23z m-12009
-57 c-14 -41 -28 -73 -30 -71 -6 6 41 145 49 145 5 0 -4 -33 -19 -74z m5585
32 c-3 -8 -6 -5 -6 6 -1 11 2 17 5 13 3 -3 4 -12 1 -19z m4323 -48 c0 -5 -10
-15 -22 -21 -23 -12 -23 -12 -4 10 21 23 26 26 26 11z m-10586 -124 c-3 -15
-8 -25 -11 -23 -2 3 -1 17 3 31 3 15 8 25 11 23 2 -3 1 -17 -3 -31z m143 -106
c-6 -16 -13 -28 -15 -26 -6 6 10 56 18 56 5 0 3 -13 -3 -30z m12523 21 c0 -18
-21 -64 -26 -58 -9 8 6 67 17 67 5 0 9 -4 9 -9z m70 -18 c-13 -45 -50 -126
-55 -121 -10 10 42 148 56 148 4 0 4 -12 -1 -27z m-24 -169 c-4 -9 -9 -15 -11
-12 -3 3 -3 13 1 22 4 9 9 15 11 12 3 -3 3 -13 -1 -22z m953 -30 c-6 -27 -15
-53 -20 -58 -4 -4 0 19 8 53 9 34 17 60 20 58 2 -3 -1 -26 -8 -53z m-12828
-191 c-12 -20 -14 -14 -5 12 4 9 9 14 11 11 3 -2 0 -13 -6 -23z m-547 -8 c-6
-16 -24 -21 -24 -7 0 11 11 22 21 22 5 0 6 -7 3 -15z m526 -65 c-6 -23 -14
-40 -16 -37 -3 3 0 24 7 46 16 54 24 46 9 -9z m-343 8 c-3 -8 -6 -5 -6 6 -1
11 2 17 5 13 3 -3 4 -12 1 -19z m12235 -70 c-7 -7 -12 -8 -12 -2 0 14 12 26
19 19 2 -3 -1 -11 -7 -17z m-15 -60 c-3 -8 -6 -5 -6 6 -1 11 2 17 5 13 3 -3 4
-12 1 -19z m-11660 -25 c1 -33 0 -35 -7 -13 -11 34 -12 50 -2 50 4 0 8 -17 9
-37z m625 -62 c12 19 0 -26 -18 -66 -8 -16 -12 -22 -9 -12 14 52 17 72 6 57
-12 -17 -14 -10 -4 16 5 13 8 14 11 5 4 -11 6 -11 14 0z m8087 -103 c-7 -13
-14 -18 -16 -11 -3 7 1 22 8 35 7 13 14 18 16 11 3 -7 -1 -22 -8 -35z m-7959
24 c0 -5 -7 -17 -16 -28 -14 -17 -15 -17 -10 -1 3 10 6 23 6 28 0 5 5 9 10 9
6 0 10 -4 10 -8z m6480 -56 c-12 -31 -23 -56 -26 -56 -6 0 6 48 23 89 23 55
25 28 3 -33z m3857 48 c-3 -3 -12 -4 -19 -1 -8 3 -5 6 6 6 11 1 17 -2 13 -5z
m217 0 c27 -10 18 -19 -16 -17 -45 2 -45 2 -28 13 18 11 23 12 44 4z m-12344
-88 c0 -2 -7 -9 -15 -16 -13 -11 -14 -10 -9 4 5 14 24 23 24 12z m5523 -11
c-3 -9 -8 -14 -10 -11 -3 3 -2 9 2 15 9 16 15 13 8 -4z m6861 7 c16 -2 17 -4
5 -18 -12 -14 -29 -16 -124 -10 -60 3 -152 6 -202 6 -51 0 -93 4 -93 9 0 5 12
11 28 13 28 3 353 3 386 0z m-10664 -47 c-7 -9 -15 -13 -18 -10 -3 2 1 11 8
20 7 9 15 13 18 10 3 -2 -1 -11 -8 -20z m6511 -2 c-12 -20 -14 -14 -5 12 4 9
9 14 11 11 3 -2 0 -13 -6 -23z m-3197 -75 c-16 -50 -45 -110 -51 -105 -3 4 7
34 23 67 30 62 40 76 28 38z m257 -15 c-8 -15 -10 -15 -11 -2 0 17 10 32 18
25 2 -3 -1 -13 -7 -23z m-3621 -7 c0 -8 -4 -18 -10 -21 -5 -3 -10 3 -10 14 0
12 5 21 10 21 6 0 10 -6 10 -14z m-830 -322 c-17 -50 -24 -35 -9 16 7 24 15
38 17 32 2 -7 -2 -28 -8 -48z m4176 -46 c-18 -26 -22 -17 -5 14 6 11 13 17 16
15 3 -3 -2 -16 -11 -29z m9125 -51 c-6 -15 -15 -27 -21 -27 -5 0 -2 16 7 36
19 39 29 32 14 -9z m369 13 c0 -11 -4 -20 -10 -20 -5 0 -10 9 -10 20 0 11 5
20 10 20 6 0 10 -9 10 -20z m-60 -30 c-35 -30 -50 -36 -50 -22 0 9 62 52 75
52 5 0 -6 -14 -25 -30z m-169 -31 l-10 -24 0 26 c-1 14 2 29 6 33 12 12 14 -9
4 -35z m-41 12 c0 -6 -4 -13 -10 -16 -5 -3 -10 1 -10 9 0 9 5 16 10 16 6 0 10
-4 10 -9z m-194 -87 c-8 -21 -15 -32 -15 -23 -1 22 22 86 26 73 2 -5 -3 -28
-11 -50z m174 26 c0 -5 -2 -10 -4 -10 -3 0 -8 5 -11 10 -3 6 -1 10 4 10 6 0
11 -4 11 -10z m395 -27 c-4 -10 -13 -33 -19 -50 -19 -51 -23 -47 -12 13 7 35
15 54 24 54 10 0 12 -6 7 -17z m-271 -30 c-4 -16 -13 -34 -20 -42 -11 -13 -14
-12 -20 3 -4 11 2 26 16 42 30 30 32 30 24 -3z m66 -26 c0 -7 -7 -22 -15 -33
-12 -16 -14 -17 -15 -2 0 23 11 48 21 48 5 0 9 -6 9 -13z m-1620 -31 c0 -3 -4
-8 -10 -11 -5 -3 -10 -1 -10 4 0 6 5 11 10 11 6 0 10 -2 10 -4z m1916 -43 c-3
-14 -10 -31 -15 -36 -9 -9 -7 12 5 51 7 23 14 12 10 -15z m-9765 -10 c-12 -20
-14 -14 -5 12 4 9 9 14 11 11 3 -2 0 -13 -6 -23z m8719 9 c0 -5 -10 -17 -22
-28 -12 -10 -19 -14 -16 -9 3 6 8 18 11 28 6 17 27 24 27 9z m681 -29 c-12
-20 -14 -14 -5 12 4 9 9 14 11 11 3 -2 0 -13 -6 -23z m-13341 -23 c-6 -11 -18
-20 -28 -20 -14 1 -13 4 7 20 29 25 34 25 21 0z m13674 -75 c-24 -50 -27 -38
-7 26 12 39 18 48 21 32 2 -12 -4 -38 -14 -58z m-389 -106 c-20 -52 -41 -98
-46 -104 -7 -7 -9 -5 -5 5 2 8 17 53 32 100 33 103 47 133 52 109 2 -10 -13
-59 -33 -110z m110 79 c-11 -48 -24 -70 -25 -38 0 36 11 70 22 70 6 0 7 -14 3
-32z m-370 -166 c-25 -81 -48 -153 -51 -161 -2 -8 -7 -12 -9 -9 -3 3 10 56 29
119 19 62 34 114 33 116 -2 1 -22 -23 -45 -54 -24 -30 -46 -53 -49 -50 -3 3
22 41 55 84 32 43 63 89 67 103 5 14 10 19 13 12 2 -7 -17 -79 -43 -160z
m-2640 121 c-3 -16 -10 -32 -15 -37 -5 -5 -4 7 2 27 13 43 23 50 13 10z m2255
17 c0 -5 -5 -10 -11 -10 -5 0 -7 5 -4 10 3 6 8 10 11 10 2 0 4 -4 4 -10z
m-10530 -37 c-11 -17 -11 -17 -6 0 3 10 6 24 7 30 0 9 2 9 5 0 3 -7 0 -20 -6
-30z m10818 -21 c-13 -21 -40 -58 -62 -83 -32 -37 -36 -39 -23 -13 9 17 23 37
33 45 9 7 27 31 40 51 32 50 42 49 12 0z m803 -29 c-9 -16 -10 -15 -11 8 0 14
3 29 8 33 12 12 14 -22 3 -41z m-351 29 c0 -5 -7 -17 -15 -28 -15 -19 -20 -8
-9 20 6 17 24 22 24 8z m-835 -32 c4 -6 -5 -10 -20 -10 -15 0 -24 4 -20 10 3
6 12 10 20 10 8 0 17 -4 20 -10z m785 0 c0 -5 -4 -10 -10 -10 -5 0 -10 5 -10
10 0 6 5 10 10 10 6 0 10 -4 10 -10z m-1449 -23 c-1 -4 -1 -23 -1 -42 0 -19
-4 -35 -10 -35 -5 0 -10 21 -10 46 0 28 4 44 11 42 6 -2 10 -7 10 -11z m-1680
-28 c-5 -13 -10 -19 -10 -12 -1 15 10 45 15 40 3 -2 0 -15 -5 -28z m2224 10
c5 -14 1 -27 -9 -37 -17 -18 -21 -6 -6 18 5 9 5 19 -2 27 -7 9 -7 13 0 13 6 0
14 -10 17 -21z m785 -3 c0 -24 -22 -76 -32 -76 -5 0 -7 8 -4 18 3 9 8 29 12
45 6 28 24 38 24 13z m-2780 -21 c0 -8 -4 -15 -10 -15 -5 0 -7 7 -4 15 4 8 8
15 10 15 2 0 4 -7 4 -15z m-250 -60 c-7 -20 -14 -34 -17 -31 -3 2 0 21 7 41 7
20 14 34 17 31 3 -2 0 -21 -7 -41z m280 35 c0 -15 -23 -60 -31 -60 -4 0 -2 16
4 35 9 32 27 48 27 25z m2540 -165 c-29 -86 -54 -154 -56 -152 -2 2 19 75 47
161 28 87 53 155 56 153 3 -3 -18 -76 -47 -162z m693 113 c-8 -29 -19 -60 -24
-68 -13 -22 -12 21 1 56 7 18 7 30 0 39 -12 14 -3 25 21 25 17 0 17 -3 2 -52z
m-1883 12 c0 -5 -7 -10 -15 -10 -8 0 -15 5 -15 10 0 6 7 10 15 10 8 0 15 -4
15 -10z m1000 1 c0 -5 -12 -11 -27 -14 -26 -5 -26 -4 -8 9 22 16 35 18 35 5z
m-930 -31 c0 -11 -4 -20 -10 -20 -5 0 -10 9 -10 20 0 11 5 20 10 20 6 0 10 -9
10 -20z m600 -4 c0 -2 -8 -10 -17 -17 -16 -13 -17 -12 -4 4 13 16 21 21 21 13z
m-181 -28 c-13 -24 -29 -23 -29 1 0 13 6 19 19 18 16 -1 18 -5 10 -19z m410
10 c-2 -2 -17 -14 -33 -28 l-29 -25 18 28 c9 15 24 27 33 27 8 0 13 -1 11 -2z
m-729 -27 c0 -19 -17 -38 -25 -29 -7 7 7 48 16 48 5 0 9 -9 9 -19z m70 5 c0
-3 -4 -8 -10 -11 -5 -3 -10 -1 -10 4 0 6 5 11 10 11 6 0 10 -2 10 -4z m1170
-23 c0 -24 -16 -48 -23 -36 -8 13 3 53 14 53 5 0 9 -8 9 -17z m-1214 -31 c-18
-16 -18 -16 -6 6 6 13 14 21 18 18 3 -4 -2 -14 -12 -24z m1564 13 c0 -8 -4
-15 -10 -15 -5 0 -7 7 -4 15 4 8 8 15 10 15 2 0 4 -7 4 -15z m-3430 -36 c0 -5
-4 -9 -10 -9 -5 0 -10 7 -10 16 0 8 5 12 10 9 6 -3 10 -10 10 -16z m3413 -14
c-3 -9 -8 -14 -10 -11 -3 3 -2 9 2 15 9 16 15 13 8 -4z m-1020 -29 c-10 -13
-20 -19 -22 -13 -2 5 4 16 15 24 26 19 27 16 7 -11z m-263 -18 c0 -5 -7 -8
-15 -8 -15 0 -20 21 -8 33 7 7 23 -11 23 -25z m1287 -32 c-11 -27 -27 -17 -27
16 0 30 1 31 16 16 9 -9 14 -24 11 -32z m54 -53 c-9 -16 -10 -16 -11 4 0 12 3
30 7 40 7 16 8 16 11 -4 2 -12 -1 -30 -7 -40z m-321 29 c0 -13 -12 -22 -22
-16 -10 6 -1 24 13 24 5 0 9 -4 9 -8z"/>
<path d="M8963 7953 c-4 -16 -7 -31 -8 -34 0 -3 -8 -13 -17 -23 -10 -10 -18
-31 -18 -48 0 -17 -8 -40 -17 -50 -14 -16 -15 -22 -5 -36 7 -9 15 -24 19 -32
3 -8 12 -19 20 -23 7 -4 13 -16 13 -25 1 -37 30 52 50 155 11 59 22 116 24
126 3 13 -2 17 -25 17 -23 0 -30 -6 -36 -27z"/>
<path d="M10555 7970 c3 -5 8 -10 11 -10 2 0 4 5 4 10 0 6 -5 10 -11 10 -5 0
-7 -4 -4 -10z"/>
<path d="M13206 7963 c-6 -14 -5 -15 5 -6 7 7 10 15 7 18 -3 3 -9 -2 -12 -12z"/>
<path d="M13290 7969 c0 -5 -5 -7 -12 -3 -7 4 -8 3 -4 -5 9 -14 -3 -53 -14
-46 -5 3 -11 -1 -13 -7 -3 -7 -4 5 -2 27 l5 40 -26 -32 c-15 -20 -30 -30 -39
-26 -8 3 -15 -1 -15 -8 0 -7 3 -9 7 -6 3 4 16 -1 27 -10 16 -14 18 -14 11 -3
-6 9 -3 8 7 -2 17 -19 44 -25 33 -8 -3 6 -1 10 5 10 6 0 8 -10 4 -25 -4 -16
-2 -25 6 -25 6 0 8 5 4 12 -4 7 -3 8 4 4 11 -7 10 -55 -2 -95 -3 -9 -8 -29
-10 -46 -9 -52 -65 -110 -67 -68 0 14 -3 12 -11 -7 -5 -14 -11 -30 -12 -37 -5
-32 -16 -23 -13 10 4 31 1 37 -14 37 -11 0 -19 4 -19 9 0 10 -31 24 -38 17 -2
-3 3 -17 13 -32 9 -15 13 -24 7 -20 -21 13 -44 -6 -38 -30 4 -15 2 -24 -5 -24
-8 0 -8 -5 1 -15 11 -13 10 -14 -5 -8 -14 5 -17 3 -13 -9 4 -8 1 -15 -7 -15
-7 0 -16 15 -20 34 -6 35 -22 44 -31 18 -4 -8 -11 -12 -16 -9 -6 4 -8 -2 -3
-15 5 -15 2 -21 -10 -21 -9 0 -13 -5 -10 -11 4 -5 -2 -18 -12 -27 -11 -9 -22
-26 -26 -37 -7 -20 -7 -20 8 -1 8 11 15 14 15 8 0 -7 -9 -21 -21 -33 l-21 -21
21 7 c27 8 26 4 -5 -30 -15 -17 -23 -34 -19 -43 3 -9 3 -14 0 -10 -9 8 -55
-39 -66 -69 -13 -36 -10 -52 5 -24 10 17 15 20 18 10 3 -8 1 -22 -4 -31 -5
-11 -5 -18 1 -18 10 0 23 29 17 39 -2 3 9 22 25 41 l30 35 -16 -39 c-8 -22
-20 -46 -27 -53 -13 -16 -5 -28 15 -20 8 3 24 38 36 79 29 93 40 122 47 115 3
-3 -4 -36 -15 -73 -30 -102 -32 -122 -13 -127 23 -5 65 11 79 30 11 14 13 14
21 -7 8 -23 9 -22 15 9 6 29 9 32 22 21 9 -7 13 -15 10 -18 -3 -3 1 -12 8 -21
10 -14 10 -14 -4 -3 -15 11 -18 9 -27 -17 -6 -17 -8 -30 -4 -30 26 4 32 -1 20
-15 -7 -8 -17 -13 -22 -13 -4 1 -10 -8 -12 -20 -2 -14 1 -21 9 -19 6 1 9 1 5
-1 -5 -3 -8 -9 -8 -14 0 -6 4 -7 10 -4 6 3 7 -1 4 -10 -6 -14 -8 -14 -21 2
-13 17 -14 16 -9 -9 4 -16 1 -29 -7 -32 -6 -4 -2 -4 11 -2 17 3 26 -2 32 -17
l9 -22 0 23 c1 13 7 22 16 22 18 0 19 -11 3 -29 -11 -11 -10 -13 4 -8 12 4 15
2 11 -9 -3 -10 0 -12 10 -8 9 3 15 14 14 24 -1 10 -5 16 -9 14 -4 -3 -8 2 -8
11 0 13 4 14 20 5 19 -10 24 -6 21 13 -1 5 4 5 10 2 8 -5 8 -10 0 -18 -17 -17
-13 -31 5 -17 24 21 38 53 36 85 -2 21 1 26 7 16 7 -11 11 -9 21 8 6 13 19 31
28 42 9 10 22 36 28 56 6 20 15 38 21 40 15 5 -9 -75 -42 -141 -14 -27 -25
-58 -25 -68 0 -11 -7 -18 -20 -18 -18 0 -25 -10 -21 -32 0 -5 -7 -8 -18 -8
-10 0 -21 -9 -24 -21 -4 -16 -3 -18 9 -8 10 8 14 8 14 1 0 -6 7 -9 15 -6 8 4
13 10 10 14 -3 5 -1 11 4 14 5 4 12 2 15 -3 4 -5 2 -12 -4 -16 -6 -3 -16 -18
-24 -33 -14 -27 -14 -27 19 -27 52 0 88 47 87 113 0 12 4 22 10 22 5 0 7 4 4
9 -3 4 8 41 24 82 33 86 38 74 11 -26 -33 -119 -45 -206 -31 -215 6 -4 11 -10
11 -14 -2 -16 0 -18 14 -6 10 9 15 9 15 1 0 -6 5 -11 11 -11 5 0 8 3 6 8 -2 4
7 18 20 31 l23 24 0 -27 c0 -21 4 -27 16 -22 8 3 12 2 9 -4 -12 -20 7 -32 21
-13 13 17 13 17 14 -4 0 -25 10 -29 27 -12 7 7 12 6 16 -5 4 -9 -1 -17 -15
-21 -14 -5 -17 -10 -9 -18 7 -7 14 -7 25 2 12 10 14 8 9 -11 -8 -33 15 -10 38
39 13 26 17 30 13 13 -3 -14 0 -38 5 -53 9 -22 8 -29 -4 -33 -8 -4 -15 -10
-15 -15 0 -5 11 -2 24 6 31 21 38 4 20 -48 -13 -35 -12 -37 6 -27 34 18 36 10
4 -15 -21 -17 -36 -42 -49 -82 -10 -32 -26 -72 -36 -89 -23 -37 -17 -44 33
-44 27 0 38 4 38 15 0 8 5 15 10 15 6 0 10 -6 10 -14 0 -16 34 -31 50 -21 5 3
10 1 10 -6 0 -9 3 -9 14 0 10 9 15 8 19 -3 8 -19 51 -15 75 7 11 10 24 42 31
72 7 30 17 57 22 60 13 9 11 -7 -6 -48 -17 -41 -20 -71 -6 -62 5 3 12 1 16 -4
3 -5 -3 -15 -12 -21 -15 -9 -10 -10 25 -8 30 3 42 0 42 -10 0 -8 5 -10 13 -5
6 4 22 6 34 5 12 -2 26 4 32 15 6 11 11 13 11 5 0 -7 5 -10 10 -7 6 3 10 0 10
-7 0 -9 3 -9 10 2 8 11 12 12 18 3 11 -17 82 -25 82 -10 0 8 3 8 8 -1 6 -8 24
36 51 120 56 175 52 166 58 150 3 -8 -2 -32 -10 -55 -9 -23 -25 -78 -37 -122
-12 -43 -24 -85 -27 -92 -4 -10 2 -12 23 -8 42 7 266 7 308 -1 24 -4 36 -2 36
5 0 6 7 11 15 11 8 0 15 9 15 20 0 11 7 20 15 20 11 0 12 -5 5 -26 -6 -14 -10
-27 -10 -28 0 -2 15 -4 33 -4 17 0 34 -1 37 -2 3 -2 16 -4 30 -6 14 -2 50 -7
80 -12 30 -5 55 -9 55 -8 1 0 8 17 17 36 l16 35 -5 -40 c-3 -30 -2 -36 6 -25
9 13 11 13 11 0 0 -20 101 -52 112 -36 4 6 8 377 8 824 l0 812 -590 0 c-518 0
-590 -2 -590 -15 0 -8 -7 -15 -16 -15 -14 0 -14 3 -4 15 11 13 7 15 -29 15
-34 0 -41 -3 -41 -19 0 -11 -5 -23 -10 -26 -6 -4 -8 -10 -5 -15 3 -4 -2 -11
-11 -14 -12 -4 -15 -2 -10 9 3 8 1 26 -4 40 -7 19 -17 25 -40 25 -17 0 -29 -4
-25 -9 3 -5 1 -12 -4 -15 -5 -4 -11 2 -13 11 -2 10 -20 -31 -40 -92 -20 -60
-50 -139 -67 -175 -28 -60 -30 -63 -31 -32 0 18 5 43 11 54 8 15 8 19 0 14 -6
-4 -11 -3 -11 3 0 5 4 12 9 15 8 5 16 37 27 106 2 14 6 40 9 58 5 28 3 32 -17
33 -13 0 -17 3 -10 6 6 2 12 9 12 14 0 15 -55 6 -56 -8 -1 -7 -2 -21 -3 -30
-2 -17 -2 -17 -12 0 -6 10 -8 25 -5 33 3 8 -1 14 -9 14 -8 0 -15 -4 -15 -10 0
-5 -5 -10 -11 -10 -5 0 -7 5 -4 10 4 6 -13 10 -44 10 -29 0 -51 -5 -51 -11z
m101 -38 c-6 -10 -7 -21 -4 -25 3 -3 2 -6 -4 -6 -6 0 -10 11 -10 25 0 15 5 25
14 25 10 0 11 -5 4 -19z m117 -2 c-2 -6 -8 -10 -13 -10 -5 0 -11 4 -13 10 -2
6 4 11 13 11 9 0 15 -5 13 -11z m-89 -350 c-17 -52 -31 -108 -30 -125 0 -21
-8 -39 -25 -55 l-26 -24 7 45 c4 24 13 49 20 55 7 5 21 46 31 90 22 105 32
131 45 118 6 -6 -1 -42 -22 -104z m1450 52 c-7 -28 -15 -49 -17 -46 -2 2 1 27
8 55 7 28 14 49 17 46 3 -3 -1 -28 -8 -55z m-1402 -53 c-3 -8 -6 -5 -6 6 -1
11 2 17 5 13 3 -3 4 -12 1 -19z m941 -20 c-5 -24 -14 -47 -20 -53 -12 -12 -2
49 14 78 14 28 17 20 6 -25z m439 -10 c-3 -8 -6 -5 -6 6 -1 11 2 17 5 13 3 -3
4 -12 1 -19z m-13 -57 c-4 -17 -9 -30 -11 -27 -3 2 -2 19 2 36 9 41 17 33 9
-9z m-1821 -30 c2 -11 0 -22 -7 -24 -6 -3 -11 7 -11 23 0 31 10 31 18 1z m-3
-153 c0 -19 -18 -43 -25 -36 -9 9 4 48 16 48 5 0 9 -6 9 -12z m675 -103 c-27
-74 -25 -48 2 45 9 30 18 48 20 40 2 -8 -8 -46 -22 -85z m-503 60 c-2 -14 -6
-25 -8 -25 -2 0 -4 11 -4 25 0 14 4 25 9 25 4 0 6 -11 3 -25z m177 -39 c-7
-31 -14 -54 -16 -52 -3 2 1 30 7 61 6 31 14 54 17 52 3 -3 -1 -31 -8 -61z
m188 12 c-3 -8 -6 -5 -6 6 -1 11 2 17 5 13 3 -3 4 -12 1 -19z m-341 -17 c-3
-5 3 -11 14 -14 20 -5 29 -27 11 -27 -5 0 -14 -13 -21 -30 -7 -16 -17 -30 -22
-30 -6 0 -7 -7 -4 -16 4 -10 2 -13 -6 -8 -7 5 -9 0 -6 -14 4 -12 2 -20 -2 -17
-5 3 -10 -1 -13 -7 -2 -7 -8 -10 -12 -6 -4 4 -1 24 6 45 16 47 17 51 25 88 4
17 12 33 18 37 15 10 18 10 12 -1z m740 -58 c-19 -77 -28 -105 -32 -100 -6 6
26 127 33 127 3 0 2 -12 -1 -27z m109 -62 c-22 -43 -29 -39 -10 5 8 20 15 39
16 43 0 3 3 1 5 -6 3 -6 -2 -25 -11 -42z m31 -62 c-8 -24 -14 -37 -15 -28 -1
19 20 82 25 76 2 -2 -2 -23 -10 -48z m-187 -30 c-7 -19 -16 -38 -20 -44 -5 -5
-2 12 7 38 9 27 18 46 20 44 2 -2 -1 -19 -7 -38z m-599 13 c0 -5 -11 -15 -25
-22 -19 -10 -28 -11 -37 -2 -9 9 -8 12 3 16 8 2 21 7 29 9 23 8 30 8 30 -1z
m1340 -93 c0 -5 -4 -9 -10 -9 -5 0 -10 7 -10 16 0 8 5 12 10 9 6 -3 10 -10 10
-16z m125 -96 c-37 -135 -46 -160 -39 -103 6 52 55 213 62 206 2 -3 -8 -49
-23 -103z m153 64 c-7 -14 -13 -17 -16 -9 -6 19 6 44 18 37 7 -4 6 -14 -2 -28z
m-1112 -48 c-21 -81 -57 -183 -68 -194 -13 -13 -6 23 16 85 9 25 25 73 37 108
26 75 35 76 15 1z m854 21 c0 -5 -4 -10 -10 -10 -5 0 -10 5 -10 10 0 6 5 10
10 10 6 0 10 -4 10 -10z m-820 -107 c-12 -21 -18 -29 -14 -18 3 11 8 29 11 40
3 11 7 27 10 35 5 13 7 12 10 -2 2 -9 -5 -34 -17 -55z m557 5 c-2 -7 -19 -59
-37 -115 -17 -57 -36 -103 -41 -103 -12 0 -13 -4 27 119 19 61 40 111 46 111
5 0 8 -6 5 -12z m-190 -30 c-3 -8 -6 -5 -6 6 -1 11 2 17 5 13 3 -3 4 -12 1
-19z m-111 -49 c-8 -30 -19 -65 -25 -79 -17 -40 -3 45 16 98 21 59 26 48 9
-19z m-276 -2 c0 -1 -9 -27 -20 -57 -11 -30 -20 -56 -20 -57 0 -2 -4 -3 -9 -3
-5 0 -1 27 11 60 11 33 24 60 29 60 5 0 9 -1 9 -3z m371 -84 c-12 -20 -14 -14
-5 12 4 9 9 14 11 11 3 -2 0 -13 -6 -23z m339 -9 c0 -8 -5 -12 -10 -9 -6 4 -8
11 -5 16 9 14 15 11 15 -7z m240 -8 c0 -8 -7 -19 -15 -26 -12 -10 -15 -10 -15
3 0 25 11 47 21 41 5 -3 9 -11 9 -18z m-313 -8 c-3 -8 -6 -5 -6 6 -1 11 2 17
5 13 3 -3 4 -12 1 -19z m-667 -32 c0 -2 -7 -7 -16 -10 -8 -3 -12 -2 -9 4 6 10
25 14 25 6z m610 -66 c0 -5 -4 -10 -10 -10 -5 0 -10 5 -10 10 0 6 5 10 10 10
6 0 10 -4 10 -10z m427 -32 c-3 -8 -6 -5 -6 6 -1 11 2 17 5 13 3 -3 4 -12 1
-19z m113 -12 c0 -3 -4 -8 -10 -11 -5 -3 -10 -1 -10 4 0 6 5 11 10 11 6 0 10
-2 10 -4z m40 -66 c0 -5 -4 -10 -10 -10 -5 0 -10 5 -10 10 0 6 5 10 10 10 6 0
10 -4 10 -10z"/>
<path d="M8832 7820 c-16 -27 -15 -43 3 -36 10 4 15 -1 16 -17 1 -19 2 -18 14
8 13 29 10 59 -5 50 -5 -3 -10 -1 -12 5 -2 6 -9 1 -16 -10z"/>
<path d="M13167 7820 c8 -30 21 -34 15 -5 -2 14 -8 25 -12 25 -5 0 -6 -9 -3
-20z"/>
<path d="M13241 7821 c-8 -6 -9 -11 -3 -15 6 -3 14 -1 17 5 9 14 2 20 -14 10z"/>
<path d="M13235 7780 c3 -5 8 -10 11 -10 2 0 4 5 4 10 0 6 -5 10 -11 10 -5 0
-7 -4 -4 -10z"/>
<path d="M13211 7714 c0 -11 3 -14 6 -6 3 7 2 16 -1 19 -3 4 -6 -2 -5 -13z"/>
<path d="M13036 7705 c-3 -9 -6 -22 -5 -28 0 -7 5 -1 10 12 5 13 8 26 5 28 -2
2 -6 -3 -10 -12z"/>
<path d="M13171 7704 c0 -11 3 -14 6 -6 3 7 2 16 -1 19 -3 4 -6 -2 -5 -13z"/>
<path d="M10495 7660 c-3 -5 -1 -10 4 -10 6 0 11 5 11 10 0 6 -2 10 -4 10 -3
0 -8 -4 -11 -10z"/>
<path d="M13021 7647 c-1 -12 -6 -16 -13 -11 -10 5 -10 4 -1 -6 16 -17 26 -8
20 17 -4 17 -5 17 -6 0z"/>
<path d="M12893 7615 c-3 -9 -3 -18 -1 -21 3 -3 8 4 11 16 6 23 -1 27 -10 5z"/>
<path d="M12827 7503 c-7 -11 11 -53 22 -53 5 0 11 9 14 20 3 10 2 19 -2 18
-19 -2 -31 3 -26 12 3 6 4 10 1 10 -3 0 -7 -3 -9 -7z"/>
<path d="M8421 7464 c0 -11 3 -14 6 -6 3 7 2 16 -1 19 -3 4 -6 -2 -5 -13z"/>
<path d="M12752 7442 c-18 -6 -15 -20 6 -25 13 -4 11 -5 -5 -6 -25 -1 -30 -15
-11 -27 7 -5 8 -3 3 6 -5 8 -4 11 3 7 13 -9 42 2 42 15 0 15 -24 35 -38 30z"/>
<path d="M12823 7434 c0 -7 4 -11 9 -8 4 3 8 1 8 -4 0 -5 -17 -17 -37 -26 -72
-32 -88 -45 -97 -77 -7 -22 -7 -34 1 -36 5 -2 18 -10 29 -17 17 -13 16 -15
-16 -35 l-35 -21 28 2 c20 2 33 11 43 30 8 16 16 28 17 28 9 0 -2 -52 -14 -67
-12 -16 -11 -16 9 1 20 17 66 135 56 145 -2 2 -5 2 -7 0 -1 -2 -17 -21 -35
-42 -50 -59 -37 -29 18 42 52 66 59 85 37 94 -8 3 -14 -1 -14 -9z"/>
<path d="M8431 7404 c0 -11 3 -14 6 -6 3 7 2 16 -1 19 -3 4 -6 -2 -5 -13z"/>
<path d="M12865 7398 c-2 -7 -9 -31 -14 -52 -9 -34 -8 -38 4 -25 8 8 16 31 18
52 4 37 0 49 -8 25z"/>
<path d="M12615 7380 c-19 -7 -19 -8 -2 -15 19 -8 31 -2 26 13 -2 5 -13 6 -24
2z"/>
<path d="M12652 7351 c-1 -22 3 -43 8 -46 15 -9 20 -3 30 40 7 30 6 35 -6 31
-8 -3 -14 -1 -14 4 0 6 -3 10 -7 10 -5 0 -9 -18 -11 -39z"/>
<path d="M12568 7363 c6 -2 10 -8 7 -13 -6 -10 40 -41 49 -33 18 19 -21 55
-57 52 -9 0 -9 -2 1 -6z"/>
<path d="M8471 7284 c-15 -61 -8 -68 9 -9 7 25 10 48 8 51 -3 2 -11 -16 -17
-42z"/>
<path d="M12635 7288 c-14 -34 -1 -44 24 -19 13 14 17 22 8 18 -9 -3 -18 -1
-20 6 -3 8 -7 6 -12 -5z"/>
<path d="M12690 7266 c0 -2 9 -6 20 -9 11 -3 18 -1 14 4 -5 9 -34 13 -34 5z"/>
<path d="M12655 7250 c-3 -5 -1 -10 4 -10 6 0 11 5 11 10 0 6 -2 10 -4 10 -3
0 -8 -4 -11 -10z"/>
<path d="M8451 7204 c0 -11 3 -14 6 -6 3 7 2 16 -1 19 -3 4 -6 -2 -5 -13z"/>
<path d="M12990 7170 c-7 -16 -19 -35 -28 -42 -11 -9 -10 -5 3 16 14 20 15 28
6 25 -18 -6 -31 -42 -22 -58 9 -14 56 29 64 59 8 32 -10 32 -23 0z"/>
<path d="M12827 7183 c-4 -3 -7 -11 -7 -17 0 -6 5 -5 12 2 6 6 9 14 7 17 -3 3
-9 2 -12 -2z"/>
<path d="M12865 7182 c-12 -8 -35 -48 -35 -59 0 -5 5 -1 10 7 8 12 10 11 10
-7 0 -12 5 -25 12 -29 6 -4 8 -3 4 4 -3 6 -1 14 5 17 5 4 8 14 5 22 -3 8 -2
12 3 9 5 -3 12 1 15 10 9 24 7 27 -9 14 -13 -11 -14 -10 -9 4 7 18 4 20 -11 8z"/>
<path d="M12900 7135 c-7 -9 -11 -18 -8 -20 3 -3 11 1 18 10 7 9 11 18 8 20
-3 3 -11 -1 -18 -10z"/>
<path d="M1730 7100 c0 -5 5 -10 10 -10 6 0 10 5 10 10 0 6 -4 10 -10 10 -5 0
-10 -4 -10 -10z"/>
<path d="M12906 7095 c-11 -8 -17 -18 -13 -21 4 -4 2 -13 -4 -21 -21 -24 3
-13 28 13 13 14 21 30 18 35 -7 11 -6 11 -29 -6z m24 1 c0 -2 -8 -10 -17 -17
-16 -13 -17 -12 -4 4 13 16 21 21 21 13z"/>
<path d="M484 6791 c4 -5 2 -11 -4 -13 -5 -1 -11 -15 -12 -30 -1 -17 -8 -28
-18 -28 -12 0 -12 -2 -2 -9 11 -7 11 -9 -2 -14 -20 -8 -16 -33 9 -70 25 -38
26 -69 4 -85 -25 -17 -54 -113 -37 -123 6 -4 13 -37 15 -76 2 -37 4 -73 5 -79
1 -7 15 -11 32 -9 17 1 37 -2 44 -8 6 -5 12 -6 12 -1 0 5 4 3 9 -5 6 -9 14 2
26 40 10 30 24 63 32 75 13 20 93 249 93 266 0 4 -7 5 -15 2 -18 -7 -21 21 -3
32 7 4 8 3 4 -4 -4 -7 -4 -12 -1 -12 3 0 13 16 21 35 8 19 20 35 27 35 6 1 0
8 -15 16 -16 8 -28 22 -29 32 -1 22 -28 -64 -31 -100 -2 -21 -5 -25 -15 -16
-16 13 -46 -9 -36 -26 4 -6 8 -25 10 -42 1 -27 -1 -31 -18 -27 -12 3 -17 9
-12 12 5 3 12 15 16 26 5 16 3 14 -11 -5 -9 -13 -27 -36 -40 -50 l-23 -25 21
43 c14 30 17 42 8 42 -8 0 -9 3 -3 8 15 11 17 32 3 32 -7 0 -1 8 14 18 20 13
24 22 18 32 -6 8 -10 11 -10 5 -1 -5 -7 5 -15 24 -13 28 -17 31 -30 21 -8 -7
-15 -18 -15 -24 0 -6 -7 -22 -16 -35 -29 -40 -36 -9 -14 60 23 76 22 69 9 69
-5 0 -8 -4 -5 -9z"/>
<path d="M700 6752 c0 -12 19 -26 26 -19 2 2 -2 10 -11 17 -9 8 -15 8 -15 2z"/>
<path d="M13571 6748 c0 -10 -6 -18 -13 -18 -6 0 -3 -8 8 -19 20 -19 42 -18
26 2 -6 7 -12 21 -15 32 -4 16 -5 17 -6 3z"/>
<path d="M1695 6739 c-4 -6 -5 -13 -2 -16 7 -7 27 6 27 18 0 12 -17 12 -25 -2z"/>
<path d="M2885 6661 c-8 -17 -12 -31 -8 -31 5 0 1 -4 -7 -10 -8 -5 -11 -12 -7
-16 11 -11 38 18 32 34 -3 8 0 21 6 29 7 7 9 16 6 19 -3 3 -13 -8 -22 -25z"/>
<path d="M13528 6678 c-3 -7 -3 -19 0 -26 3 -10 8 -9 23 4 10 9 16 21 13 25
-8 13 -31 11 -36 -3z"/>
<path d="M2905 6651 c-3 -5 -1 -12 5 -16 5 -3 10 1 10 9 0 18 -6 21 -15 7z"/>
<path d="M4740 6554 c-52 -111 -55 -120 -42 -127 4 -2 2 -2 -5 -1 -16 4 -24
-22 -13 -48 7 -18 9 -19 9 -5 1 9 5 17 10 17 5 0 7 -9 4 -20 -4 -15 2 -22 22
-30 40 -15 43 -13 65 31 12 23 24 39 27 36 3 -3 -2 -20 -11 -37 -8 -17 -12
-30 -7 -28 13 5 81 85 81 95 0 5 9 19 20 31 l20 21 -24 17 c-28 18 -46 12 -46
-15 0 -15 -29 -64 -30 -50 0 3 9 32 20 65 20 57 19 121 -1 108 -5 -3 -7 -11
-3 -17 3 -7 -1 -3 -10 8 -8 11 -20 25 -25 31 -5 7 -7 15 -4 18 4 3 3 6 -1 6
-3 0 -29 -48 -56 -106z m56 -104 c-28 -43 -44 -54 -25 -17 23 42 42 68 47 63
3 -3 -7 -24 -22 -46z m-40 -95 c17 -16 14 -18 -10 -9 -9 3 -16 10 -16 15 0 13
9 11 26 -6z"/>
<path d="M13563 6640 c-3 -11 -10 -17 -16 -13 -5 3 -7 1 -3 -5 3 -5 0 -13 -6
-15 -7 -3 -8 -6 -3 -6 6 0 15 3 21 7 13 8 29 52 19 52 -4 0 -9 -9 -12 -20z"/>
<path d="M672 6508 c-24 -62 -47 -126 -51 -143 -4 -16 -11 -40 -15 -53 -7 -22
-6 -23 16 -10 12 7 34 24 47 38 14 14 27 25 31 25 14 0 80 84 80 103 0 12 4
23 9 26 28 18 -24 124 -55 112 -7 -3 -14 -1 -16 5 -2 5 -22 -42 -46 -103z m71
35 c-9 -27 -20 -52 -26 -58 -7 -7 -8 -5 -4 6 3 10 11 35 18 58 7 23 16 41 20
41 4 0 1 -21 -8 -47z"/>
<path d="M2841 6563 c-10 -21 -9 -28 1 -34 15 -9 44 14 51 42 8 31 -37 25 -52
-8z"/>
<path d="M13505 6580 c-3 -5 -1 -10 4 -10 6 0 11 5 11 10 0 6 -2 10 -4 10 -3
0 -8 -4 -11 -10z"/>
<path d="M4916 6571 c3 -7 0 -17 -7 -22 -20 -12 -31 -11 -23 3 4 7 3 8 -4 4
-17 -10 -17 -10 30 -41 31 -21 39 -23 35 -10 -4 9 -7 22 -7 29 0 7 -7 21 -16
32 -8 10 -12 13 -8 5z"/>
<path d="M13535 6570 c-3 -5 -1 -10 4 -10 6 0 11 5 11 10 0 6 -2 10 -4 10 -3
0 -8 -4 -11 -10z"/>
<path d="M13520 6540 c0 -5 5 -10 10 -10 6 0 10 5 10 10 0 6 -4 10 -10 10 -5
0 -10 -4 -10 -10z"/>
<path d="M2816 6504 c-9 -24 -7 -28 9 -14 17 14 20 30 6 30 -5 0 -12 -7 -15
-16z"/>
<path d="M13506 6505 c7 -17 -16 -17 -28 0 -5 7 -8 6 -8 -1 0 -5 14 -23 30
-39 17 -16 30 -23 30 -17 0 7 -5 12 -11 12 -7 0 -9 10 -5 24 3 14 2 28 -4 31
-6 3 -7 -1 -4 -10z"/>
<path d="M2822 6468 c-14 -14 -16 -42 -3 -34 7 5 23 46 17 46 -1 0 -7 -5 -14
-12z"/>
<path d="M4913 6454 c-10 -14 -33 -44 -52 -65 -33 -38 -33 -39 -10 -39 34 0 5
-17 -43 -25 -22 -4 -35 -11 -32 -17 4 -6 -1 -8 -14 -4 -11 4 -23 2 -27 -3 -3
-6 0 -8 8 -5 17 6 50 -23 42 -37 -4 -5 1 -6 10 -2 10 3 21 0 25 -7 9 -15 30
-5 30 16 0 8 8 14 18 15 10 0 12 3 5 6 -20 8 -15 23 8 23 16 0 19 4 14 21 -5
16 -4 19 6 14 8 -6 11 -4 7 6 -3 8 -1 25 5 39 6 14 11 36 12 50 1 14 7 24 14
22 7 -1 10 2 6 8 -9 14 -12 13 -32 -16z"/>
<path d="M13440 6470 c0 -4 12 -10 26 -13 18 -3 22 -1 15 6 -13 13 -41 18 -41
7z"/>
<path d="M2777 6416 c-4 -10 1 -12 14 -9 23 6 24 9 5 16 -8 3 -17 0 -19 -7z"/>
<path d="M4650 6380 c0 -5 5 -10 10 -10 6 0 10 5 10 10 0 6 -4 10 -10 10 -5 0
-10 -4 -10 -10z"/>
<path d="M2767 6359 c-15 -9 -47 -58 -47 -74 0 -17 22 0 36 28 9 17 22 35 28
39 17 11 2 17 -17 7z"/>
<path d="M10410 6269 c0 -5 5 -7 10 -4 6 3 10 8 10 11 0 2 -4 4 -10 4 -5 0
-10 -5 -10 -11z"/>
<path d="M5112 5895 c8 -17 19 -25 37 -25 24 0 24 0 -9 25 -19 14 -35 25 -37
25 -1 0 3 -11 9 -25z"/>
<path d="M5190 5910 c8 -5 20 -10 25 -10 6 0 3 5 -5 10 -8 5 -19 10 -25 10 -5
0 -3 -5 5 -10z"/>
<path d="M5569 5898 c9 -12 9 -18 1 -23 -6 -4 -9 -14 -6 -22 5 -11 2 -13 -10
-9 -11 4 -14 1 -12 -12 2 -9 -5 -22 -17 -29 -11 -7 -14 -12 -7 -13 6 0 12 -7
12 -15 0 -14 14 -19 47 -18 7 1 10 -3 7 -8 -3 -5 -17 -7 -30 -5 -14 3 -24 2
-22 -2 2 -4 12 -25 23 -47 l18 -40 18 40 c10 22 19 46 19 53 0 7 6 23 14 35
15 25 32 91 17 68 -7 -10 -17 -5 -46 25 -21 22 -32 32 -26 22z"/>
<path d="M5649 5798 c-7 -24 -12 -51 -11 -60 1 -10 -2 -18 -6 -18 -10 0 -46
-99 -39 -106 3 -3 8 4 12 15 3 11 11 18 18 16 7 -2 24 21 39 53 52 109 52 109
35 126 -24 24 -33 20 -48 -26z"/>
<path d="M591 5814 c0 -11 3 -14 6 -6 3 7 2 16 -1 19 -3 4 -6 -2 -5 -13z"/>
<path d="M751 5584 c0 -11 3 -14 6 -6 3 7 2 16 -1 19 -3 4 -6 -2 -5 -13z"/>
<path d="M1135 5558 c-8 -24 -35 -136 -35 -144 0 -5 13 23 29 61 16 39 25 72
20 73 -5 2 -7 8 -3 13 3 5 3 9 -1 9 -3 0 -8 -6 -10 -12z"/>
<path d="M1407 5363 c-4 -3 -7 -11 -7 -17 0 -6 5 -5 12 2 6 6 9 14 7 17 -3 3
-9 2 -12 -2z"/>
<path d="M1382 5316 c-14 -7 -20 -17 -17 -26 4 -8 3 -11 -1 -7 -4 4 -16 -10
-25 -30 -15 -33 -16 -38 -3 -41 9 -2 17 -2 19 0 5 5 56 119 52 117 -1 -1 -12
-6 -25 -13z"/>
<path d="M826 5214 c-14 -14 -14 -34 0 -34 3 0 2 5 -1 10 -3 6 -2 10 3 10 6 0
12 7 16 15 7 19 1 19 -18 -1z"/>
<path d="M7947 5039 c7 -7 15 -10 18 -7 3 3 -2 9 -12 12 -14 6 -15 5 -6 -5z"/>
<path d="M14490 4858 c0 -9 5 -20 10 -23 13 -8 13 5 0 25 -8 13 -10 13 -10 -2z"/>
<path d="M14691 4234 c0 -11 3 -14 6 -6 3 7 2 16 -1 19 -3 4 -6 -2 -5 -13z"/>
<path d="M1201 4224 c0 -11 3 -14 6 -6 3 7 2 16 -1 19 -3 4 -6 -2 -5 -13z"/>
<path d="M14947 4186 c-9 -21 -20 -36 -23 -33 -4 4 -13 -1 -21 -11 -14 -16
-14 -16 -8 3 12 36 15 76 5 70 -6 -4 -10 -17 -10 -31 0 -22 -45 -114 -56 -114
-2 0 3 17 11 38 15 36 15 37 -4 15 -10 -12 -21 -41 -25 -64 -4 -23 -13 -51
-21 -62 -8 -12 -15 -34 -15 -50 0 -15 -6 -30 -14 -33 -10 -4 -14 -22 -14 -62
0 -33 -4 -58 -11 -60 -6 -2 -11 -10 -11 -18 0 -8 -13 -47 -29 -87 -40 -101
-91 -259 -91 -283 0 -29 -31 -116 -69 -194 -18 -36 -33 -81 -35 -101 -2 -20
-10 -47 -19 -59 -11 -16 -13 -29 -6 -47 6 -17 6 -22 -2 -17 -7 4 -9 0 -5 -13
4 -11 -3 -49 -13 -84 -11 -35 -23 -108 -27 -161 -5 -85 -4 -99 10 -104 15 -6
15 -9 3 -23 -8 -9 -18 -23 -22 -31 -8 -13 -6 -13 8 -1 15 12 15 10 0 -35 -11
-33 -13 -49 -5 -52 7 -2 8 -11 3 -25 -5 -12 -12 -45 -15 -72 -4 -28 -12 -70
-18 -95 -13 -56 -16 -73 -23 -130 l-6 -45 23 29 c61 78 83 92 35 23 -10 -16
-17 -31 -14 -33 3 -3 -3 -31 -14 -61 -10 -30 -16 -59 -13 -64 3 -5 -1 -9 -8
-9 -10 0 -10 -2 -1 -8 7 -4 13 -33 14 -64 2 -45 5 -55 17 -51 11 5 11 0 -3
-27 -9 -18 -12 -30 -7 -26 5 3 15 19 22 36 7 16 17 30 22 30 5 0 6 5 3 10 -3
6 4 14 17 19 18 7 25 4 33 -10 9 -16 14 -7 29 52 22 87 33 83 16 -6 -7 -36
-10 -69 -6 -72 3 -4 6 1 6 10 0 10 6 17 14 17 8 0 18 5 22 12 5 8 2 9 -9 5
-11 -4 -17 -1 -17 9 0 9 5 12 12 8 7 -4 8 -3 4 5 -4 6 13 49 39 96 25 47 44
88 42 93 -3 4 5 30 18 57 l22 50 -2 -42 c-1 -29 -19 -76 -55 -144 -37 -73 -49
-104 -41 -112 8 -8 11 -8 12 1 3 29 4 32 11 30 15 -6 41 45 74 145 19 56 31
84 28 62 -4 -22 -7 -47 -7 -55 0 -8 -3 -19 -7 -25 -4 -5 -11 -25 -15 -44 -6
-26 -4 -32 6 -27 8 4 7 2 -2 -6 -16 -13 -59 -90 -59 -105 0 -4 7 3 16 16 13
18 18 20 25 10 6 -10 9 -7 9 11 0 19 6 26 20 27 11 1 26 8 34 15 11 11 11 16
-1 26 -22 22 -14 36 9 16 l22 -19 -18 30 -19 30 21 -18 c20 -19 21 -18 40 25
11 23 27 70 36 103 10 33 19 68 22 78 3 9 10 17 15 17 6 0 7 -9 3 -22 -15 -50
-14 -51 10 -8 38 69 31 43 -19 -64 -25 -54 -45 -109 -45 -122 0 -14 -4 -22
-10 -19 -6 3 -7 -1 -4 -9 3 -9 10 -14 14 -11 5 3 13 -3 19 -12 9 -17 10 -17
16 0 4 9 11 17 17 17 5 0 6 -4 3 -10 -3 -5 -2 -10 3 -10 5 0 12 9 15 20 3 11
1 18 -3 15 -5 -3 -11 -1 -15 5 -4 6 5 10 19 10 17 0 26 6 26 15 0 8 9 23 19
32 11 9 18 19 16 23 -2 3 7 6 20 6 15 0 21 -5 18 -13 -3 -7 0 -13 6 -13 7 0
11 39 10 123 -1 67 -3 114 -6 105 -2 -10 -9 -18 -14 -18 -9 0 -4 33 12 78 5
13 9 114 8 225 l0 202 -20 -40 c-10 -22 -16 -29 -13 -15 4 14 13 37 21 53 11
22 13 141 13 695 -1 622 -2 670 -19 683 -15 14 -18 12 -34 -25z m13 -35 c-9
-33 -29 -71 -30 -57 0 19 24 86 31 86 4 0 4 -13 -1 -29z m-299 -688 c-12 -20
-14 -14 -5 12 4 9 9 14 11 11 3 -2 0 -13 -6 -23z m8 -72 c-6 -18 -13 -30 -15
-28 -2 2 1 18 7 36 6 18 13 30 15 28 2 -2 -1 -18 -7 -36z m21 -195 c0 -3 -4
-8 -10 -11 -5 -3 -10 -1 -10 4 0 6 5 11 10 11 6 0 10 -2 10 -4z m-139 -53
c-12 -20 -14 -14 -5 12 4 9 9 14 11 11 3 -2 0 -13 -6 -23z m338 -144 c-21 -74
-38 -111 -25 -54 14 63 37 137 41 133 3 -2 -5 -38 -16 -79z m-373 45 c-4 -9
-9 -15 -11 -12 -3 3 -3 13 1 22 4 9 9 15 11 12 3 -3 3 -13 -1 -22z m253 -160
c-12 -50 -29 -81 -29 -53 0 21 31 111 37 106 2 -3 -1 -26 -8 -53z m61 -221
c-34 -136 -44 -163 -62 -163 -7 0 -8 14 -3 43 4 23 8 56 10 72 4 57 27 128 37
113 6 -8 7 -4 3 12 -4 17 1 34 17 53 34 43 34 16 -2 -130z m70 -143 c0 -5 -5
-10 -11 -10 -5 0 -7 5 -4 10 3 6 8 10 11 10 2 0 4 -4 4 -10z m-300 -151 c-7
-11 -14 -18 -17 -15 -8 8 5 36 17 36 7 0 7 -6 0 -21z m134 -113 c-3 -15 -8
-25 -11 -23 -2 3 -1 17 3 31 3 15 8 25 11 23 2 -3 1 -17 -3 -31z m81 -48 c-8
-37 -25 -61 -25 -35 0 17 20 67 27 67 3 0 2 -15 -2 -32z"/>
<path d="M14801 2694 c0 -11 3 -14 6 -6 3 7 2 16 -1 19 -3 4 -6 -2 -5 -13z"/>
<path d="M14761 4213 c-1 -7 -9 -13 -18 -13 -13 0 -14 -3 -5 -12 15 -15 37 3
29 24 -4 9 -6 10 -6 1z"/>
<path d="M1351 4054 c0 -11 3 -14 6 -6 3 7 2 16 -1 19 -3 4 -6 -2 -5 -13z"/>
<path d="M1 3308 l1 -43 13 30 c18 39 18 55 0 55 -11 0 -15 -11 -14 -42z"/>
<path d="M191 3294 c0 -11 3 -14 6 -6 3 7 2 16 -1 19 -3 4 -6 -2 -5 -13z"/>
<path d="M175 3260 c-3 -5 1 -10 10 -10 9 0 13 5 10 10 -3 6 -8 10 -10 10 -2
0 -7 -4 -10 -10z"/>
<path d="M375 3260 c-3 -6 1 -7 9 -4 18 7 21 14 7 14 -6 0 -13 -4 -16 -10z"/>
<path d="M575 3110 c3 -5 11 -10 16 -10 6 0 7 5 4 10 -3 6 -11 10 -16 10 -6 0
-7 -4 -4 -10z"/>
<path d="M13929 2043 c-74 -126 -99 -193 -99 -268 0 -18 6 -38 14 -45 8 -6 16
-21 18 -33 4 -30 31 -33 77 -9 28 15 42 17 50 9 14 -14 20 -7 28 29 7 36 7 27
-3 164 -5 63 -8 152 -8 198 0 45 0 82 -1 82 -1 0 -35 -57 -76 -127z"/>
<path d="M14992 2090 c0 -14 2 -19 5 -12 2 6 2 18 0 25 -3 6 -5 1 -5 -13z"/>
<path d="M14366 2063 c-6 -14 -5 -15 5 -6 7 7 10 15 7 18 -3 3 -9 -2 -12 -12z"/>
<path d="M13803 1825 c-3 -9 -3 -18 -1 -21 3 -3 8 4 11 16 6 23 -1 27 -10 5z"/>
<path d="M14346 1287 c3 -10 9 -15 12 -12 3 3 0 11 -7 18 -10 9 -11 8 -5 -6z"/>
<path d="M12993 965 c0 -22 2 -30 4 -17 2 12 2 30 0 40 -3 9 -5 -1 -4 -23z"/>
<path d="M13195 509 c-4 -6 -5 -12 -2 -15 2 -3 7 2 10 11 7 17 1 20 -8 4z"/>
<path d="M13156 493 c-6 -14 -5 -15 5 -6 7 7 10 15 7 18 -3 3 -9 -2 -12 -12z"/>
<path d="M13466 465 c-3 -9 -6 -22 -5 -28 0 -7 5 -1 10 12 5 13 8 26 5 28 -2
2 -6 -3 -10 -12z"/>
<path d="M14986 283 c-22 -72 -76 -266 -76 -274 0 -5 20 -9 45 -9 l45 0 0 150
c0 83 -2 150 -4 150 -3 0 -7 -8 -10 -17z"/>
</g>
</svg>
